<svg width="73" height="75" viewBox="0 0 73 75" fill="none" xmlns="http://www.w3.org/2000/svg">
<ellipse cx="39.1382" cy="40.9654" rx="32.9819" ry="33.0357" fill="#E2ECFF"/>
<path fill-rule="evenodd" clip-rule="evenodd" d="M2.63212 21.3793C7.98306 8.43809 20.5903 0 34.5747 0C53.6586 0.0190366 69.1256 15.5081 69.1484 34.6232C69.1512 48.6303 60.7293 61.2598 47.8102 66.6221C34.8912 71.9843 20.0193 69.0232 10.1298 59.1197C0.240414 49.2161 -2.71883 34.3205 2.63212 21.3793ZM2.03125 34.6226C2.03125 52.6244 16.6009 67.2178 34.5734 67.2178C52.5383 67.1992 67.097 52.6167 67.1156 34.6226C67.1156 16.6207 52.546 2.02734 34.5734 2.02734C16.6009 2.02734 2.03125 16.6207 2.03125 34.6226Z" fill="#153A62"/>
<path fill-rule="evenodd" clip-rule="evenodd" d="M42.7632 14.0957H52.0975C53.2003 14.0957 54.0976 14.9946 54.0976 16.0991V53.497C54.0976 54.6016 53.2003 55.5005 52.0975 55.5005H42.7632H25.4282H16.0939C14.9911 55.5005 14.0938 54.6016 14.0938 53.497V16.0991C14.0938 14.9946 14.9911 14.0957 16.0939 14.0957H25.4282H42.7632ZM42.0953 15.4316H26.0938V19.4385H42.0953V15.4316ZM42.0953 54.1651H26.0938V50.1582H42.0953V54.1651ZM52.096 54.1651C52.4634 54.1651 52.7628 53.8659 52.7628 53.4973V16.0995C52.7628 15.7309 52.4634 15.4316 52.096 15.4316H43.4285V20.1063C43.4285 20.4757 43.1298 20.7741 42.7618 20.7741H25.4268C25.0588 20.7741 24.76 20.4757 24.76 20.1063V15.4316H16.0925C15.7252 15.4316 15.4258 15.7309 15.4258 16.0995V53.4973C15.4258 53.8659 15.7252 54.1651 16.0925 54.1651H24.76V49.4904C24.76 49.1211 25.0588 48.8226 25.4268 48.8226H42.7618C43.1298 48.8226 43.4285 49.1211 43.4285 49.4904V54.1651H52.096Z" fill="#003863"/>
<path fill-rule="evenodd" clip-rule="evenodd" d="M25.4284 22.7773H42.7635C43.1315 22.7773 43.4302 23.0758 43.4302 23.4452V46.151C43.4302 46.5203 43.1315 46.8188 42.7635 46.8188H25.4284C25.0604 46.8188 24.7617 46.5203 24.7617 46.151V23.4452C24.7617 23.0758 25.0604 22.7773 25.4284 22.7773ZM26.0938 45.4835H42.0953V24.1133H26.0938V45.4835Z" fill="#003863"/>
<path fill-rule="evenodd" clip-rule="evenodd" d="M17.4284 17.4355H22.7623C23.1303 17.4355 23.4291 17.7341 23.4291 18.1034V22.1102C23.4291 22.4796 23.1303 22.7781 22.7623 22.7781H17.4284C17.0604 22.7781 16.7617 22.4796 16.7617 22.1102V18.1034C16.7617 17.734 17.0604 17.4355 17.4284 17.4355ZM18.0938 21.4428H22.0941V18.7715H18.0938V21.4428Z" fill="#003863"/>
<path fill-rule="evenodd" clip-rule="evenodd" d="M17.4284 24.7812H22.7623C23.1303 24.7812 23.4291 25.0797 23.4291 25.4491V29.4559C23.4291 29.8253 23.1303 30.1238 22.7623 30.1238H17.4284C17.0604 30.1238 16.7617 29.8253 16.7617 29.4559V25.4491C16.7617 25.0797 17.0604 24.7812 17.4284 24.7812ZM18.0938 28.7884H22.0941V26.1172H18.0938V28.7884Z" fill="#003863"/>
<path fill-rule="evenodd" clip-rule="evenodd" d="M17.4265 32.127H22.7604C23.1284 32.127 23.4271 32.4254 23.4271 32.7948V36.8016C23.4271 37.171 23.1284 37.4695 22.7604 37.4695H17.4265C17.0585 37.4695 16.7598 37.171 16.7598 36.8016V32.7948C16.7598 32.4254 17.0585 32.127 17.4265 32.127ZM18.0938 36.1341H22.0941V33.4629H18.0938V36.1341Z" fill="#003863"/>
<path fill-rule="evenodd" clip-rule="evenodd" d="M17.4265 39.4727H22.7604C23.1284 39.4727 23.4271 39.7712 23.4271 40.1405V44.1474C23.4271 44.5167 23.1284 44.8152 22.7604 44.8152H17.4265C17.0585 44.8152 16.7598 44.5167 16.7598 44.1474V40.1405C16.7598 39.7711 17.0585 39.4727 17.4265 39.4727ZM18.0938 43.4798H22.0941V40.8086H18.0938V43.4798Z" fill="#003863"/>
<path fill-rule="evenodd" clip-rule="evenodd" d="M17.4284 46.8184H22.7623C23.1303 46.8184 23.4291 47.1168 23.4291 47.4862V51.4931C23.4291 51.8624 23.1303 52.1609 22.7623 52.1609H17.4284C17.0604 52.1609 16.7617 51.8624 16.7617 51.4931V47.4862C16.7617 47.1168 17.0604 46.8184 17.4284 46.8184ZM18.0938 50.8256H22.0941V48.1543H18.0938V50.8256Z" fill="#003863"/>
<path fill-rule="evenodd" clip-rule="evenodd" d="M45.4304 17.4336H50.7643C51.1323 17.4336 51.431 17.7322 51.431 18.1014V22.1083C51.431 22.4776 51.1323 22.7761 50.7643 22.7761H45.4304C45.0624 22.7761 44.7637 22.4776 44.7637 22.1083V18.1014C44.7637 17.7321 45.0624 17.4336 45.4304 17.4336ZM46.0977 21.4409H50.098V18.7695H46.0977V21.4409Z" fill="#003863"/>
<path fill-rule="evenodd" clip-rule="evenodd" d="M45.4304 24.7812H50.7643C51.1323 24.7812 51.431 25.0797 51.431 25.4491V29.4559C51.431 29.8253 51.1323 30.1238 50.7643 30.1238H45.4304C45.0624 30.1238 44.7637 29.8253 44.7637 29.4559V25.4491C44.7637 25.0797 45.0624 24.7812 45.4304 24.7812ZM46.0977 28.7884H50.098V26.1172H46.0977V28.7884Z" fill="#003863"/>
<path fill-rule="evenodd" clip-rule="evenodd" d="M45.4304 32.127H50.7643C51.1323 32.127 51.431 32.4254 51.431 32.7948V36.8016C51.431 37.171 51.1323 37.4695 50.7643 37.4695H45.4304C45.0624 37.4695 44.7637 37.171 44.7637 36.8016V32.7948C44.7637 32.4254 45.0624 32.127 45.4304 32.127ZM46.0977 36.1341H50.098V33.4629H46.0977V36.1341Z" fill="#003863"/>
<path fill-rule="evenodd" clip-rule="evenodd" d="M45.4304 39.4727H50.7643C51.1323 39.4727 51.431 39.7712 51.431 40.1405V44.1474C51.431 44.5167 51.1323 44.8152 50.7643 44.8152H45.4304C45.0624 44.8152 44.7637 44.5167 44.7637 44.1474V40.1405C44.7637 39.7711 45.0624 39.4727 45.4304 39.4727ZM46.0977 43.4798H50.098V40.8086H46.0977V43.4798Z" fill="#003863"/>
<path fill-rule="evenodd" clip-rule="evenodd" d="M45.4304 46.8184H50.7643C51.1323 46.8184 51.431 47.1168 51.431 47.4862V51.4931C51.431 51.8624 51.1323 52.1609 50.7643 52.1609H45.4304C45.0624 52.1609 44.7637 51.8624 44.7637 51.4931V47.4862C44.7637 47.1168 45.0624 46.8184 45.4304 46.8184ZM46.0977 50.8256H50.098V48.1543H46.0977V50.8256Z" fill="#003863"/>
<path fill-rule="evenodd" clip-rule="evenodd" d="M32.0965 38.8049C31.9852 38.8049 31.8745 38.7769 31.7731 38.7215C31.5611 38.6033 31.4298 38.3796 31.4297 38.1372V31.459C31.4297 31.2165 31.561 30.9929 31.7731 30.8746C31.9851 30.7571 32.2438 30.7638 32.4498 30.8927L37.7837 34.2317C37.9783 34.3539 38.097 34.5677 38.097 34.7981C38.097 35.0285 37.9783 35.2422 37.7837 35.3644L32.4499 38.7034C32.3419 38.7709 32.2191 38.8049 32.0965 38.8049ZM36.1726 34.7978L32.7637 32.6641V36.9314L36.1726 34.7978Z" fill="#003863"/>
</svg>
