<svg width="142" height="38" viewBox="0 0 142 38" fill="none" xmlns="http://www.w3.org/2000/svg">
<path d="M54.6542 3.49414V6.80242H58.2315V8.71207H54.6542V16.149C54.6542 17.8569 55.1384 18.8386 56.5235 18.8386C57.0181 18.8536 57.5122 18.7946 57.9894 18.6638L58.0835 20.5466C57.3698 20.8095 56.611 20.9283 55.8511 20.8962C54.8372 20.9509 53.8516 20.5517 53.1615 19.8069C52.4052 18.7716 52.0645 17.4904 52.2066 16.2162V8.71207H50.0684V6.80242H52.2066V4.24724L54.6542 3.49414Z" fill="white"/>
<path d="M61.5 1.35547H64.0148V8.99409C64.4602 8.23485 65.1135 7.61888 65.8976 7.21892C66.6746 6.76742 67.5542 6.52206 68.4528 6.50616C70.2952 6.50616 73.2672 7.64926 73.2672 12.3965V20.6H70.7524V12.6789C70.7524 10.4465 69.9321 8.56374 67.5652 8.56374C66.0129 8.59152 64.6528 9.6102 64.1897 11.092C64.0552 11.4761 63.9958 11.8824 64.0148 12.2889V20.6268H61.5V1.35547Z" fill="white"/>
<path fill-rule="evenodd" clip-rule="evenodd" d="M79.3932 17.6265C78.4854 16.7058 78.0258 15.4342 78.1351 14.146H87.8986C87.8986 14.0393 87.9127 13.9022 87.929 13.7424C87.9519 13.5195 87.9793 13.2524 87.9793 12.9625C87.9793 10.515 86.7689 6.48047 82.2638 6.48047C78.2562 6.48047 75.8086 9.78874 75.8086 13.9308C75.8086 18.0729 78.2696 20.9105 82.5327 20.9105C84.1024 20.9398 85.6605 20.6374 87.1051 20.0229L86.6748 18.2208C85.4666 18.7264 84.1647 18.9694 82.8555 18.9336C81.5658 19.0247 80.3009 18.5471 79.3932 17.6265ZM82.0352 8.33594C84.8728 8.33594 85.5049 10.7701 85.5049 12.3704H78.1621C78.3773 10.6759 79.48 8.33594 82.0352 8.33594Z" fill="white"/>
<path fill-rule="evenodd" clip-rule="evenodd" d="M93.7344 6.80286C93.842 8.10734 93.842 9.53286 93.842 11.308H93.8151V25.2539H96.2895V18.7449H96.3568C97.3029 20.1608 98.9185 20.9813 100.62 20.9101C103.888 20.9101 106.9 18.4625 106.9 13.5001C106.9 9.31769 104.385 6.4801 101.05 6.4801C99.048 6.40806 97.1679 7.4411 96.1551 9.16975H96.0744L95.9668 6.80286H93.7344ZM96.437 16.0156C96.3791 15.6776 96.3432 15.3362 96.3294 14.9936H96.2891V12.6536C96.3111 12.3032 96.3697 11.9562 96.4639 11.618C96.8779 9.83514 98.4403 8.55433 100.27 8.49805C102.919 8.49805 104.385 10.8784 104.385 13.6487C104.385 16.7956 102.879 18.9608 100.189 18.9608C98.4071 18.9668 96.8544 17.748 96.437 16.0156Z" fill="white"/>
<path d="M109.807 11.0933C109.807 9.45256 109.807 8.08084 109.699 6.80325H111.905L111.972 9.49291H112.08C112.568 7.76367 114.117 6.54691 115.912 6.48049C116.152 6.47963 116.39 6.50215 116.625 6.54773V8.92808C116.339 8.89029 116.05 8.89029 115.764 8.92808C114.005 9.00086 112.569 10.3619 112.402 12.1153C112.323 12.5001 112.287 12.8925 112.295 13.2853V20.6281H109.807V11.0933Z" fill="white"/>
<path fill-rule="evenodd" clip-rule="evenodd" d="M124.142 20.9105C127.477 20.9105 131.014 18.6781 131.014 13.5677C131.014 9.34495 128.217 6.48047 124.384 6.48047C120.551 6.48047 117.539 9.21047 117.539 13.8232C117.539 18.2208 120.417 20.9105 124.142 20.9105ZM124.276 19.0004C121.829 19.0004 120.094 16.7277 120.094 13.7152C120.094 11.0256 121.412 8.33594 124.357 8.33594C127.302 8.33594 128.472 11.2811 128.472 13.6211C128.472 16.768 126.724 19.0004 124.276 19.0004Z" fill="white"/>
<path d="M133.434 18.0443C134.422 18.6681 135.561 19.0121 136.729 19.0395C138.545 19.0395 139.419 18.1116 139.419 16.9819C139.419 15.8523 138.706 15.1261 136.864 14.4267C134.376 13.5392 133.206 12.1809 133.206 10.5133C133.206 8.28089 135.021 6.47882 137.953 6.47882C139.145 6.46778 140.32 6.75929 141.369 7.32606L140.723 9.14158C139.874 8.60897 138.887 8.33772 137.886 8.36158C136.393 8.36158 135.586 9.20882 135.586 10.2309C135.586 11.253 136.393 11.8985 138.276 12.5843C140.656 13.4988 141.893 14.6688 141.893 16.7264C141.893 19.1336 140.01 20.8819 136.742 20.8819C135.395 20.903 134.065 20.574 132.883 19.9271L133.488 18.0443H133.434Z" fill="white"/>
<path fill-rule="evenodd" clip-rule="evenodd" d="M25.5616 2.31868C27.2326 0.75134 29.4625 -0.0801119 31.7517 0.0106244C39.6996 0.0106244 47.1903 11.2668 37.3059 24.9168C33.2037 30.3915 27.7684 34.7249 21.5176 37.5044C21.5176 37.4135 22.1322 36.9046 23.0296 36.1617C24.787 34.7067 27.6288 32.3539 29.0621 30.4844C25.5386 31.883 22.1228 28.7496 23.0776 25.7237C23.3505 24.5669 24.159 23.6097 25.2539 23.1473C26.3489 22.6849 27.5988 22.7727 28.6183 23.3837C29.6773 24.0955 30.2071 25.3723 29.9631 26.6248C29.7399 27.541 29.066 28.2808 28.1745 28.5882C28.7796 27.862 28.8334 24.9975 26.4934 24.9975C25.5412 25.0693 24.7268 25.7093 24.4319 26.6175C24.1371 27.5258 24.4202 28.5222 25.1486 29.1396C27.0448 30.7668 30.5683 29.4758 31.6979 26.9072C33.2041 23.4913 31.5769 20.4117 27.9996 17.4934C27.9226 17.4293 27.8431 17.3635 27.7614 17.296C25.8876 15.7466 22.8624 13.2453 22.8624 8.34856C22.9182 6.05822 23.8906 3.88602 25.5616 2.31868ZM35.2758 15.0732C34.1596 14.6159 32.8148 16.4045 33.7696 17.588H33.8368C35.0606 19.2018 38.4765 17.8704 38.9203 15.5707C40.3727 8.24143 36.513 3.14453 31.4296 3.14453C28.381 3.16523 25.8423 5.48897 25.5527 8.52384C25.3717 11.2428 26.601 13.8638 28.8072 15.4632C31.9406 18.0856 35.2489 22.4025 33.6217 25.9797C35.2705 23.8719 36.6359 21.557 37.683 19.0942C36.0356 20.0542 33.9255 19.565 32.8686 17.978C32.1083 16.7507 32.4526 15.1421 33.6486 14.3335C34.6619 13.5582 36.1096 13.7377 36.903 14.7369C37.3737 15.367 37.3737 16.2317 36.903 16.8618C36.4223 17.318 35.7274 17.4684 35.101 17.2518C35.6521 17.2218 36.0962 16.789 36.1403 16.2388C36.1845 15.6887 35.8151 15.1906 35.2758 15.0732Z" fill="white"/>
<path d="M7.06103 25.482L7.46447 25.3072C7.3702 24.8798 7.21628 24.4679 7.00723 24.0834C5.23448 21.5188 3.94472 18.6522 3.20137 15.6244C1.58758 8.07993 5.60861 3.19821 10.7593 3.19821C13.8055 3.22509 16.3406 5.54562 16.6362 8.57752C16.7384 11.2932 15.5022 13.8864 13.3279 15.5168C13.1665 15.6782 12.9379 15.853 13.3279 15.853C15.6276 15.853 19.2586 13.4458 19.2586 8.3489C19.1999 6.04027 18.2116 3.85313 16.5178 2.28337C14.824 0.713604 12.5681 -0.105791 10.2617 0.0109671C2.42137 0.0109671 -4.90794 10.8637 4.26378 24.2179C5.03161 24.9357 6.01488 25.38 7.06103 25.482Z" fill="white"/>
<path d="M12.9376 30.7945C11.9506 29.8189 11.0168 28.7908 10.1403 27.7148H9.25276L8.63414 28.1586C8.58141 28.5198 8.44812 28.8645 8.24414 29.1673C11.6172 32.9374 15.8663 35.8194 20.6166 37.559C20.4955 37.29 14.3497 32.1393 12.9376 30.7945Z" fill="white"/>
<path d="M7.34215 26.3697C5.65283 26.264 3.95721 26.4136 2.3125 26.8135C2.54877 28.6093 3.42212 30.2606 4.77353 31.4666C6.30225 30.6493 7.44737 29.2626 7.96078 27.6069L8.9156 27.0421C10.502 27.3037 12.13 27.1078 13.6091 26.4773C13.1989 24.8928 12.4358 23.4216 11.3766 22.1738C10.0178 23.087 8.94905 24.3704 8.29698 25.8721L7.34215 26.3697Z" fill="white"/>
<g opacity="0.5">
<path d="M51.6421 28.4671C51.6174 28.4047 51.6279 28.3339 51.6694 28.2813C51.711 28.2286 51.7774 28.2021 51.8438 28.2115H52.8659C52.9543 28.2143 53.0306 28.2742 53.0541 28.3595L54.2107 32.7705L56.0127 28.2519C56.0127 28.2519 56.08 28.1309 56.201 28.1309H56.3893C56.5103 28.1309 56.5641 28.1309 56.5776 28.2519L58.3527 32.8109L59.4824 28.3998C59.5073 28.3097 59.5907 28.2485 59.6841 28.2519H60.6927C60.7591 28.2424 60.8256 28.269 60.8671 28.3216C60.9087 28.3743 60.9191 28.445 60.8945 28.5074L58.81 35.9309C58.7825 36.0211 58.7024 36.0852 58.6083 36.0922H58.4334C58.3497 36.1026 58.2705 36.0517 58.2452 35.9712L56.3086 30.9415L54.3452 35.9443C54.3198 36.0248 54.2406 36.0757 54.1569 36.0653H53.9283C53.8342 36.0583 53.754 35.9942 53.7265 35.904L51.6421 28.4671Z" fill="white"/>
<path d="M64.4316 28.4146C64.4316 28.3032 64.522 28.2129 64.6334 28.2129H69.1385C69.2499 28.2129 69.3403 28.3032 69.3403 28.4146V29.3291C69.3403 29.4405 69.2499 29.5308 69.1385 29.5308H65.8975V31.3463H68.5872C68.7009 31.3461 68.7952 31.4345 68.8023 31.5481V32.476C68.8025 32.5319 68.7794 32.5854 68.7386 32.6236C68.6978 32.6619 68.6429 32.6814 68.5872 32.6777H65.8975V34.6143H69.1654C69.2768 34.6143 69.3672 34.7046 69.3672 34.816V35.7305C69.3672 35.8419 69.2768 35.9322 69.1654 35.9322H64.6334C64.522 35.9322 64.4316 35.8419 64.4316 35.7305L64.4316 28.4146Z" fill="white"/>
<path fill-rule="evenodd" clip-rule="evenodd" d="M73.3211 28.2129C73.215 28.22 73.1326 28.3083 73.1328 28.4146V35.7305C73.1326 35.8368 73.215 35.9251 73.3211 35.9322H75.9435C77.3224 35.9322 78.5966 35.1966 79.2861 34.0024C79.9755 32.8082 79.9755 31.3369 79.2861 30.1427C78.5966 28.9485 77.3224 28.2129 75.9435 28.2129H73.3211ZM78.1667 32.0665C78.1667 33.3913 77.144 34.4915 75.8227 34.588H74.5586V29.5449H75.8227C77.144 29.6415 78.1667 30.7416 78.1667 32.0665Z" fill="white"/>
<path fill-rule="evenodd" clip-rule="evenodd" d="M83.6763 28.2129C83.5649 28.2129 83.4746 28.3032 83.4746 28.4146V35.7305C83.4746 35.8419 83.5649 35.9322 83.6763 35.9322H86.366C87.7449 35.9322 89.0191 35.1966 89.7085 34.0024C90.398 32.8082 90.398 31.3369 89.7085 30.1427C89.0191 28.9485 87.7449 28.2129 86.366 28.2129H83.6763ZM88.5085 32.0665C88.5085 33.3913 87.4858 34.4915 86.1645 34.588H84.9004V29.5449H86.1645C87.4858 29.6415 88.5085 30.7416 88.5085 32.0665Z" fill="white"/>
<path d="M93.8301 28.4146C93.8372 28.3011 93.9315 28.2127 94.0453 28.2129H95.0673C95.1811 28.2127 95.2754 28.3011 95.2825 28.4146V35.7305C95.2754 35.844 95.1811 35.9324 95.0673 35.9322H94.0453C93.9315 35.9324 93.8372 35.844 93.8301 35.7305L93.8301 28.4146Z" fill="white"/>
<path d="M99.5176 28.2525C99.5176 28.1411 99.6079 28.0508 99.7193 28.0508H100.002L104.588 32.9325V28.4139C104.595 28.3003 104.689 28.2119 104.803 28.2122H105.811C105.925 28.2119 106.019 28.3003 106.027 28.4139V35.8508C106.019 35.9643 105.925 36.0527 105.811 36.0525H105.556L100.93 30.9422V35.6894C100.93 35.8008 100.839 35.8911 100.728 35.8911H99.7193C99.6658 35.8911 99.6145 35.8699 99.5767 35.832C99.5388 35.7942 99.5176 35.7429 99.5176 35.6894L99.5176 28.2525Z" fill="white"/>
<path d="M113.652 28.0913C114.644 28.1034 115.598 28.4709 116.342 29.1269C116.388 29.1652 116.414 29.2218 116.414 29.2815C116.414 29.3412 116.388 29.3978 116.342 29.4362L115.656 30.1489C115.623 30.194 115.571 30.2207 115.515 30.2207C115.459 30.2207 115.406 30.194 115.374 30.1489C114.524 29.4456 113.315 29.3778 112.393 29.9817C111.47 30.5856 111.048 31.7203 111.353 32.7803C111.657 33.8403 112.617 34.5782 113.719 34.6003C114.181 34.5989 114.638 34.5076 115.064 34.3313V33.39H114.19C114.076 33.3902 113.982 33.3018 113.975 33.1882V32.2872C113.975 32.2313 113.998 32.1778 114.039 32.1396C114.079 32.1014 114.134 32.0818 114.19 32.0855H116.301C116.413 32.0855 116.503 32.1758 116.503 32.2872V35.1113C116.505 35.183 116.476 35.2519 116.423 35.2996C115.599 35.7578 114.675 36.0028 113.733 36.0124C111.803 35.6742 110.395 33.998 110.395 32.0384C110.395 30.0788 111.803 28.4026 113.733 28.0645L113.652 28.0913Z" fill="white"/>
<path d="M119.852 34.8551L120.256 34.1692C120.294 34.1078 120.356 34.0647 120.427 34.0495C120.498 34.0343 120.572 34.0484 120.632 34.0885C121.119 34.4579 121.694 34.6943 122.3 34.7744C122.545 34.7967 122.788 34.7194 122.975 34.56C123.163 34.4006 123.278 34.1725 123.295 33.9271C123.295 33.3623 122.824 32.9723 121.95 32.5823C121.076 32.1923 119.879 31.5064 119.879 30.202C119.897 29.5814 120.176 28.9972 120.647 28.5928C121.118 28.1884 121.737 28.0012 122.353 28.0771C123.15 28.0992 123.922 28.3565 124.572 28.8168C124.663 28.9261 124.663 29.084 124.572 29.1933L124.142 29.812C124.061 29.9464 123.887 30.0406 123.766 29.9464C123.303 29.6297 122.774 29.4227 122.219 29.3413C121.738 29.294 121.307 29.6409 121.251 30.1213C121.251 30.6323 121.668 30.982 122.596 31.3451C123.523 31.7082 124.909 32.4209 124.909 33.8464C124.878 34.4788 124.591 35.0714 124.114 35.4876C123.637 35.9038 123.011 36.1076 122.38 36.052C121.491 36.0742 120.624 35.7678 119.946 35.1913C119.812 35.0837 119.758 34.9761 119.852 34.8551Z" fill="white"/>
</g>
</svg>
