<svg width="73" height="75" viewBox="0 0 73 75" fill="none" xmlns="http://www.w3.org/2000/svg">
<ellipse cx="39.1382" cy="40.9654" rx="32.9819" ry="33.0357" fill="#E2ECFF"/>
<path fill-rule="evenodd" clip-rule="evenodd" d="M2.63212 21.3793C7.98306 8.43809 20.5903 0 34.5747 0C53.6586 0.0190366 69.1256 15.5081 69.1484 34.6232C69.1512 48.6303 60.7293 61.2598 47.8102 66.6221C34.8912 71.9843 20.0193 69.0232 10.1298 59.1197C0.240413 49.2161 -2.71883 34.3205 2.63212 21.3793ZM2.03125 34.6226C2.03125 52.6244 16.6009 67.2178 34.5734 67.2178C52.5383 67.1992 67.097 52.6167 67.1156 34.6226C67.1156 16.6207 52.546 2.02734 34.5734 2.02734C16.6009 2.02734 2.03125 16.6207 2.03125 34.6226Z" fill="#153A62"/>
<path fill-rule="evenodd" clip-rule="evenodd" d="M53.6324 21.531H49.3177L46.6947 17.1525C46.6933 17.1503 46.6919 17.1482 46.6904 17.1461L46.6865 17.1402C46.6789 17.1282 46.6711 17.1166 46.6629 17.105C46.6568 17.0965 46.6507 17.0882 46.6443 17.0801C46.637 17.0707 46.6293 17.0615 46.6214 17.0525C46.6135 17.0435 46.6056 17.0346 46.5973 17.026C46.5902 17.0185 46.5827 17.0112 46.5752 17.0041C46.566 16.9953 46.5567 16.9866 46.547 16.9784C46.5393 16.9718 46.5313 16.9654 46.5234 16.9592C46.5136 16.9516 46.5037 16.9441 46.4937 16.937C46.4845 16.9305 46.4751 16.9245 46.4658 16.9186C46.4564 16.9126 46.447 16.9067 46.4373 16.9013C46.4263 16.895 46.415 16.8892 46.4037 16.8836C46.3952 16.8793 46.3866 16.8751 46.3779 16.8712C46.3653 16.8656 46.3524 16.8604 46.3394 16.8555C46.3312 16.8523 46.3231 16.8493 46.315 16.8465C46.3018 16.8421 46.2883 16.8381 46.2746 16.8344C46.2658 16.8319 46.2571 16.8296 46.2482 16.8276C46.2355 16.8246 46.2225 16.8221 46.2096 16.8198C46.1991 16.8179 46.1885 16.8163 46.1779 16.8149C46.1665 16.8134 46.1551 16.8123 46.1436 16.8114C46.1306 16.8103 46.1176 16.8097 46.1046 16.8094L46.0978 16.809C46.0946 16.8088 46.0914 16.8086 46.0883 16.8086H31.9438C31.9408 16.8086 31.938 16.8088 31.9351 16.809L31.9351 16.809L31.9287 16.8094C31.9148 16.8098 31.9011 16.8104 31.8873 16.8115C31.8767 16.8123 31.866 16.8134 31.8554 16.8147C31.844 16.8161 31.8325 16.8179 31.8211 16.82C31.809 16.8221 31.7968 16.8245 31.7848 16.8272C31.7753 16.8294 31.7657 16.8319 31.7561 16.8345C31.7432 16.8381 31.7304 16.8418 31.7178 16.8461C31.7104 16.8486 31.703 16.8514 31.6956 16.8542L31.6915 16.8557C31.6791 16.8605 31.6668 16.8654 31.6548 16.8708C31.6456 16.8749 31.6366 16.8794 31.6275 16.8839C31.6165 16.8894 31.6057 16.895 31.5951 16.901C31.5852 16.9067 31.5755 16.9126 31.566 16.9187C31.5568 16.9245 31.5476 16.9305 31.5386 16.9368C31.5285 16.944 31.5185 16.9515 31.5086 16.9593C31.5006 16.9655 31.4927 16.9718 31.4851 16.9783C31.4755 16.9866 31.4662 16.9951 31.457 17.0039C31.4493 17.0112 31.4419 17.0185 31.4346 17.0261C31.4265 17.0346 31.4186 17.0434 31.4108 17.0523C31.4029 17.0614 31.3952 17.0707 31.3877 17.0802C31.3813 17.0883 31.3753 17.0965 31.3693 17.1049C31.3611 17.1164 31.3532 17.1282 31.3456 17.1402C31.3443 17.1423 31.3429 17.1443 31.3415 17.1464C31.3401 17.1484 31.3387 17.1504 31.3374 17.1525L28.7144 21.531H22.278V19.406C22.278 19.0147 21.9615 18.6976 21.5708 18.6976H15.9129C15.5223 18.6976 15.2057 19.0148 15.2057 19.406V21.531H14.9698C13.0199 21.531 11.4336 23.1199 11.4336 25.0729V49.6306C11.4336 51.5837 13.0199 53.1725 14.9697 53.1725H53.6323C55.5822 53.1725 57.1684 51.5836 57.1684 49.6306V25.0729C57.1685 23.1199 55.5822 21.531 53.6324 21.531ZM16.6211 20.1152H20.8645V21.5319H16.6211V20.1152ZM22.2776 51.7568H53.632C54.8018 51.7568 55.7536 50.8035 55.7536 49.6317H55.7535V25.0741C55.7535 23.9023 54.8017 22.949 53.6318 22.949H48.9188L48.9173 22.9491L48.9129 22.9488C48.8863 22.9486 48.8603 22.9467 48.8344 22.9438C48.8272 22.9429 48.82 22.9415 48.8127 22.9405C48.7918 22.9373 48.7712 22.9335 48.7508 22.9286C48.7473 22.9277 48.7437 22.9268 48.7401 22.9258C48.7366 22.9249 48.7331 22.924 48.7296 22.923C48.7078 22.917 48.6865 22.91 48.6656 22.9021C48.6639 22.9015 48.6622 22.9009 48.6604 22.9002C48.6572 22.8991 48.654 22.898 48.6508 22.8967C48.6252 22.8862 48.6001 22.8746 48.576 22.8613C48.5738 22.86 48.5715 22.8586 48.5693 22.8572C48.5675 22.856 48.5656 22.8549 48.5638 22.8538C48.5446 22.8427 48.5261 22.8309 48.5081 22.8181C48.5009 22.813 48.494 22.8077 48.487 22.8023L48.4851 22.8008C48.4701 22.7892 48.4556 22.7769 48.4416 22.7641C48.4352 22.7582 48.4286 22.7527 48.4223 22.7465C48.403 22.7275 48.3848 22.7076 48.3677 22.6865C48.3657 22.6841 48.3639 22.6815 48.362 22.679C48.3607 22.677 48.3593 22.6751 48.3579 22.6733C48.3432 22.6543 48.3294 22.6345 48.3166 22.614C48.3157 22.6124 48.3146 22.6109 48.3135 22.6095C48.3125 22.6081 48.3114 22.6066 48.3105 22.605L45.6875 18.2266H32.3438L29.7208 22.605C29.7188 22.6082 29.7165 22.6109 29.7146 22.614C29.7018 22.6344 29.6881 22.6542 29.6735 22.6733C29.672 22.6752 29.6706 22.6771 29.6692 22.679C29.6674 22.6816 29.6655 22.6841 29.6636 22.6865C29.6466 22.7077 29.6284 22.7276 29.609 22.7465C29.6046 22.7508 29.6 22.7548 29.5955 22.7589C29.5935 22.7606 29.5915 22.7624 29.5896 22.7641C29.5756 22.7769 29.5611 22.7892 29.5461 22.8008C29.5384 22.8067 29.5309 22.8125 29.523 22.8181C29.5051 22.8309 29.4864 22.8427 29.4674 22.8538C29.4633 22.8562 29.4593 22.859 29.4552 22.8613C29.431 22.8745 29.4061 22.8862 29.3803 22.8967C29.3755 22.8987 29.3706 22.9002 29.3656 22.9021C29.3447 22.91 29.3234 22.917 29.3016 22.923C29.2945 22.925 29.2874 22.9268 29.2803 22.9286C29.26 22.9335 29.2393 22.9373 29.2184 22.9405C29.2157 22.9409 29.213 22.9413 29.2103 22.9418C29.2058 22.9425 29.2013 22.9432 29.1967 22.9438C29.171 22.9467 29.1449 22.9486 29.1183 22.9488L29.1138 22.9491L29.1124 22.949H14.9693C13.7995 22.949 12.8477 23.9023 12.8477 25.0741V31.9454H14.9695C15.3601 31.9454 15.6767 32.2625 15.6767 32.6538C15.6767 33.045 15.3601 33.3621 14.9695 33.3621H12.8477V35.6999H14.9695C15.3601 35.6999 15.6767 36.0169 15.6767 36.4082C15.6767 36.7994 15.3601 37.1165 14.9695 37.1165H12.8477V39.4544H14.9695C15.3601 39.4544 15.6767 39.7715 15.6767 40.1628C15.6767 40.554 15.3601 40.8711 14.9695 40.8711H12.8477V43.2089H14.9695C15.3601 43.2089 15.6767 43.5259 15.6767 43.9172C15.6767 44.3084 15.3601 44.6255 14.9695 44.6255H12.8477V49.6317C12.8477 50.8035 13.7994 51.7568 14.9693 51.7568H20.8632V25.074C20.8632 24.6828 21.1798 24.3657 21.5704 24.3657C21.9611 24.3657 22.2776 24.6828 22.2776 25.074V51.7568Z" fill="#003863"/>
<path d="M49.3177 21.531L49.1032 21.6595L49.176 21.781H49.3177V21.531ZM46.6947 17.1525L46.9092 17.024L46.9088 17.0234L46.6947 17.1525ZM46.6904 17.1461L46.4825 17.285L46.485 17.2886L46.6904 17.1461ZM46.6865 17.1402L46.4752 17.274L46.4786 17.2791L46.6865 17.1402ZM46.6629 17.105L46.8666 16.96L46.8663 16.9596L46.6629 17.105ZM46.6443 17.0801L46.4472 17.2339L46.4479 17.2348L46.6443 17.0801ZM46.6214 17.0525L46.8101 16.8884L46.8092 16.8874L46.6214 17.0525ZM46.5973 17.026L46.4161 17.1983L46.4176 17.1998L46.5973 17.026ZM46.5752 17.0041L46.7477 16.8232L46.7477 16.8231L46.5752 17.0041ZM46.547 16.9784L46.7093 16.7882L46.7092 16.7881L46.547 16.9784ZM46.5234 16.9592L46.6781 16.7628L46.6773 16.7622L46.5234 16.9592ZM46.4937 16.937L46.638 16.7328L46.6371 16.7322L46.4937 16.937ZM46.4373 16.9013L46.5604 16.6837L46.5604 16.6837L46.4373 16.9013ZM46.4037 16.8836L46.2908 17.1066L46.2924 17.1075L46.4037 16.8836ZM46.3779 16.8712L46.2758 17.0994L46.2765 17.0997L46.3779 16.8712ZM46.3394 16.8555L46.2505 17.0891L46.2506 17.0892L46.3394 16.8555ZM46.315 16.8465L46.3957 16.6099L46.3951 16.6097L46.315 16.8465ZM46.2746 16.8344L46.2081 17.0753L46.2083 17.0754L46.2746 16.8344ZM46.2482 16.8276L46.3049 16.5841L46.3045 16.584L46.2482 16.8276ZM46.2096 16.8198L46.1653 17.0658L46.1654 17.0658L46.2096 16.8198ZM46.1779 16.8149L46.2112 16.5671L46.2092 16.5668L46.1779 16.8149ZM46.1436 16.8114L46.1229 17.0605L46.1242 17.0606L46.1436 16.8114ZM46.1046 16.8094L46.0907 17.0592L46.0995 17.0593L46.1046 16.8094ZM46.0978 16.809L46.0811 17.0585L46.0839 17.0586L46.0978 16.809ZM31.9351 16.809L31.9169 16.5597L31.9164 16.5597L31.9351 16.809ZM31.9351 16.809L31.95 17.0586L31.9537 17.0583L31.9351 16.809ZM31.9287 16.8094L31.9351 17.0595L31.9436 17.059L31.9287 16.8094ZM31.8873 16.8115L31.9062 17.0607L31.9067 17.0607L31.8873 16.8115ZM31.8554 16.8147L31.8261 16.5664L31.8243 16.5666L31.8554 16.8147ZM31.8211 16.82L31.8646 17.0661L31.8654 17.066L31.8211 16.82ZM31.7848 16.8272L31.7301 16.5833L31.7279 16.5838L31.7848 16.8272ZM31.7561 16.8345L31.6911 16.5931L31.6891 16.5937L31.7561 16.8345ZM31.7178 16.8461L31.797 17.0832L31.7985 17.0827L31.7178 16.8461ZM31.6956 16.8542L31.7842 17.0879L31.7843 17.0879L31.6956 16.8542ZM31.6915 16.8557L31.6028 16.622L31.6023 16.6222L31.6915 16.8557ZM31.6548 16.8708L31.5531 16.6424L31.5527 16.6426L31.6548 16.8708ZM31.6275 16.8839L31.7388 17.1078L31.7404 17.107L31.6275 16.8839ZM31.5951 16.901L31.4723 16.6833L31.4715 16.6837L31.5951 16.901ZM31.566 16.9187L31.6996 17.13L31.7002 17.1296L31.566 16.9187ZM31.5386 16.9368L31.3946 16.7324L31.394 16.7329L31.5386 16.9368ZM31.5086 16.9593L31.6623 17.1565L31.6639 17.1552L31.5086 16.9593ZM31.4851 16.9783L31.3231 16.7879L31.3219 16.7889L31.4851 16.9783ZM31.457 17.0039L31.6286 17.1857L31.6295 17.1849L31.457 17.0039ZM31.4346 17.0261L31.2545 16.8527L31.2539 16.8533L31.4346 17.0261ZM31.4108 17.0523L31.5993 17.2165L31.5996 17.2162L31.4108 17.0523ZM31.3877 17.0802L31.1916 16.9251L31.1913 16.9255L31.3877 17.0802ZM31.3693 17.1049L31.5724 17.2507L31.573 17.2499L31.3693 17.1049ZM31.3456 17.1402L31.1344 17.0064L31.1316 17.011L31.3456 17.1402ZM31.3415 17.1464L31.5464 17.2896L31.5465 17.2895L31.3415 17.1464ZM31.3374 17.1525L31.1234 17.0233L31.1229 17.024L31.3374 17.1525ZM28.7144 21.531V21.781H28.8561L28.9289 21.6595L28.7144 21.531ZM22.278 21.531H22.028V21.781H22.278V21.531ZM15.2057 21.531V21.781H15.4557V21.531H15.2057ZM57.1684 25.0729L56.9184 25.0729V25.0729H57.1684ZM20.8645 20.1152H21.1145V19.8652H20.8645V20.1152ZM16.6211 20.1152V19.8652H16.3711V20.1152H16.6211ZM20.8645 21.5319V21.7819H21.1145V21.5319H20.8645ZM16.6211 21.5319H16.3711V21.7819H16.6211V21.5319ZM22.2776 51.7568H22.0276V52.0068H22.2776V51.7568ZM55.7536 49.6317H56.0036V49.3817H55.7536V49.6317ZM55.7535 49.6317H55.5035V49.8817H55.7535V49.6317ZM48.9188 22.949V22.699H48.9109L48.9031 22.6995L48.9188 22.949ZM48.9173 22.9491L48.9023 23.1986L48.9177 23.1995L48.933 23.1986L48.9173 22.9491ZM48.9129 22.9488L48.9279 22.6989L48.9146 22.6988L48.9129 22.9488ZM48.8344 22.9438L48.8037 23.1919L48.806 23.1922L48.8344 22.9438ZM48.8127 22.9405L48.7757 23.1877L48.7761 23.1878L48.8127 22.9405ZM48.7508 22.9286L48.6894 23.1709L48.6921 23.1716L48.7508 22.9286ZM48.7401 22.9258L48.8027 22.6838L48.8026 22.6838L48.7401 22.9258ZM48.7296 22.923L48.7967 22.6822L48.7959 22.682L48.7296 22.923ZM48.6656 22.9021L48.7546 22.6684L48.7512 22.6672L48.6656 22.9021ZM48.6604 22.9002L48.7429 22.6642L48.7428 22.6642L48.6604 22.9002ZM48.6508 22.8967L48.5563 23.1282L48.5578 23.1288L48.6508 22.8967ZM48.576 22.8613L48.4528 23.0788L48.4547 23.0799L48.576 22.8613ZM48.5693 22.8572L48.7032 22.646L48.7031 22.646L48.5693 22.8572ZM48.5638 22.8538L48.6905 22.6383L48.6888 22.6373L48.5638 22.8538ZM48.5081 22.8181L48.6532 22.6145L48.6523 22.6138L48.5081 22.8181ZM48.487 22.8023L48.6394 22.6041L48.6393 22.604L48.487 22.8023ZM48.4851 22.8008L48.3319 22.9984L48.3328 22.999L48.4851 22.8008ZM48.4416 22.7641L48.2725 22.9483L48.2731 22.9488L48.4416 22.7641ZM48.4223 22.7465L48.598 22.5686L48.5976 22.5682L48.4223 22.7465ZM48.3677 22.6865L48.5619 22.529L48.5618 22.5289L48.3677 22.6865ZM48.362 22.679L48.1588 22.8245L48.1589 22.8247L48.362 22.679ZM48.3579 22.6733L48.556 22.5208L48.5553 22.5199L48.3579 22.6733ZM48.3166 22.614L48.102 22.7422L48.1045 22.7463L48.3166 22.614ZM48.3135 22.6095L48.1122 22.7576L48.1123 22.7578L48.3135 22.6095ZM48.3105 22.605L48.096 22.7335L48.0971 22.7354L48.3105 22.605ZM45.6875 18.2266L45.902 18.0981L45.8292 17.9766H45.6875V18.2266ZM32.3438 18.2266V17.9766H32.2021L32.1293 18.0981L32.3438 18.2266ZM29.7208 22.605L29.9326 22.7379L29.9353 22.7335L29.7208 22.605ZM29.7146 22.614L29.5028 22.481L29.5027 22.4813L29.7146 22.614ZM29.6735 22.6733L29.8712 22.8263L29.8717 22.8257L29.6735 22.6733ZM29.6692 22.679L29.467 22.5321L29.4669 22.5322L29.6692 22.679ZM29.6636 22.6865L29.4694 22.529L29.4687 22.5299L29.6636 22.6865ZM29.609 22.7465L29.7833 22.9256L29.7834 22.9256L29.609 22.7465ZM29.5955 22.7589L29.4295 22.5719L29.4294 22.572L29.5955 22.7589ZM29.5896 22.7641L29.4219 22.5787L29.4211 22.5794L29.5896 22.7641ZM29.5461 22.8008L29.6984 22.999L29.6992 22.9984L29.5461 22.8008ZM29.523 22.8181L29.3789 22.6138L29.378 22.6145L29.523 22.8181ZM29.4674 22.8538L29.3415 22.6378L29.3407 22.6382L29.4674 22.8538ZM29.4552 22.8613L29.5755 23.0804L29.5783 23.0788L29.4552 22.8613ZM29.3803 22.8967L29.2864 22.665L29.2858 22.6652L29.3803 22.8967ZM29.3656 22.9021L29.2777 22.668L29.2766 22.6685L29.3656 22.9021ZM29.3016 22.923L29.2353 22.682L29.2344 22.6822L29.3016 22.923ZM29.2803 22.9286L29.3391 23.1716L29.3418 23.1709L29.2803 22.9286ZM29.2184 22.9405L29.2552 23.1878L29.2555 23.1877L29.2184 22.9405ZM29.2103 22.9418L29.2503 23.1885L29.2504 23.1885L29.2103 22.9418ZM29.1967 22.9438L29.2252 23.1922L29.2274 23.1919L29.1967 22.9438ZM29.1183 22.9488L29.1166 22.6985L29.1036 22.6992L29.1183 22.9488ZM29.1138 22.9491L29.0971 23.1985L29.1127 23.1996L29.1285 23.1986L29.1138 22.9491ZM29.1124 22.949L29.1291 22.6995L29.1208 22.699H29.1124V22.949ZM12.8477 31.9454H12.5977V32.1954H12.8477V31.9454ZM12.8477 33.3621V33.1121H12.5977V33.3621H12.8477ZM12.8477 35.6999H12.5977V35.9499H12.8477V35.6999ZM12.8477 37.1165V36.8665H12.5977V37.1165H12.8477ZM12.8477 39.4544H12.5977V39.7044H12.8477V39.4544ZM12.8477 40.8711V40.6211H12.5977V40.8711H12.8477ZM12.8477 43.2089H12.5977V43.4589H12.8477V43.2089ZM12.8477 44.6255V44.3755H12.5977V44.6255H12.8477ZM20.8632 51.7568V52.0068H21.1132V51.7568H20.8632ZM49.3177 21.781H53.6324V21.281H49.3177V21.781ZM46.4802 17.281L49.1032 21.6595L49.5321 21.4025L46.9092 17.024L46.4802 17.281ZM46.485 17.2886C46.486 17.29 46.4856 17.2894 46.485 17.2885C46.4843 17.2875 46.4826 17.285 46.4806 17.2816L46.9088 17.0234C46.9026 17.0131 46.8964 17.0044 46.8958 17.0035L46.485 17.2886ZM46.4786 17.2791L46.4825 17.285L46.8983 17.0072L46.8943 17.0013L46.4786 17.2791ZM46.4592 17.25C46.4646 17.2575 46.4699 17.2654 46.4753 17.274L46.8977 17.0064C46.8879 16.991 46.8776 16.9756 46.8666 16.96L46.4592 17.25ZM46.4479 17.2348C46.4512 17.239 46.455 17.2441 46.4595 17.2504L46.8663 16.9596C46.8586 16.949 46.8501 16.9374 46.8407 16.9255L46.4479 17.2348ZM46.4328 17.2165C46.4385 17.223 46.4432 17.2288 46.4472 17.2339L46.8415 16.9264C46.8308 16.9127 46.8202 16.9 46.8101 16.8884L46.4328 17.2165ZM46.4176 17.1998C46.4214 17.2037 46.4259 17.2087 46.4337 17.2176L46.8092 16.8874C46.8011 16.8783 46.7898 16.8654 46.777 16.8522L46.4176 17.1998ZM46.4026 17.185C46.4098 17.1918 46.4135 17.1955 46.4161 17.1983L46.7785 16.8538C46.7669 16.8415 46.7556 16.8307 46.7477 16.8232L46.4026 17.185ZM46.3848 17.1686C46.3891 17.1723 46.3944 17.1771 46.4027 17.185L46.7477 16.8231C46.7376 16.8135 46.7243 16.801 46.7093 16.7882L46.3848 17.1686ZM46.3687 17.1556C46.3759 17.1613 46.3809 17.1653 46.3849 17.1687L46.7092 16.7881C46.6977 16.7783 46.6867 16.7696 46.6781 16.7628L46.3687 17.1556ZM46.3494 17.1412C46.355 17.1451 46.3615 17.15 46.3695 17.1562L46.6773 16.7622C46.6657 16.7532 46.6524 16.743 46.638 16.7328L46.3494 17.1412ZM46.3311 17.1292C46.3412 17.1357 46.3462 17.1389 46.3503 17.1418L46.6371 16.7322C46.6229 16.7222 46.609 16.7134 46.6004 16.7079L46.3311 17.1292ZM46.3143 17.1189C46.3183 17.1212 46.3234 17.1243 46.3311 17.1292L46.6004 16.7079C46.5893 16.7008 46.5757 16.6923 46.5604 16.6837L46.3143 17.1189ZM46.2924 17.1075C46.3016 17.112 46.3085 17.1156 46.3143 17.1189L46.5604 16.6837C46.544 16.6744 46.5285 16.6664 46.5149 16.6597L46.2924 17.1075ZM46.2765 17.0997C46.2796 17.1011 46.2839 17.1032 46.2908 17.1066L46.5166 16.6605C46.5064 16.6554 46.4936 16.649 46.4794 16.6427L46.2765 17.0997ZM46.2506 17.0892C46.261 17.0931 46.2691 17.0964 46.2758 17.0994L46.4801 16.643C46.4616 16.6348 46.4438 16.6277 46.4282 16.6218L46.2506 17.0892ZM46.2342 17.0831C46.238 17.0844 46.2428 17.0862 46.2505 17.0891L46.4284 16.6219C46.4196 16.6185 46.4082 16.6142 46.3957 16.6099L46.2342 17.0831ZM46.2083 17.0754C46.2198 17.0786 46.2281 17.0811 46.2348 17.0833L46.3951 16.6097C46.3754 16.6031 46.3568 16.5977 46.3409 16.5933L46.2083 17.0754ZM46.1916 17.0711C46.1956 17.072 46.2006 17.0733 46.2081 17.0753L46.3411 16.5934C46.331 16.5906 46.3186 16.5872 46.3049 16.5841L46.1916 17.0711ZM46.1654 17.0658C46.1764 17.0678 46.1848 17.0695 46.192 17.0711L46.3045 16.584C46.2861 16.5797 46.2687 16.5764 46.2538 16.5737L46.1654 17.0658ZM46.1445 17.0626C46.1525 17.0637 46.1594 17.0648 46.1653 17.0658L46.2538 16.5737C46.2389 16.571 46.2245 16.5689 46.2112 16.5671L46.1445 17.0626ZM46.1242 17.0606C46.1318 17.0612 46.1392 17.062 46.1465 17.0629L46.2092 16.5668C46.1938 16.5649 46.1784 16.5633 46.1629 16.5621L46.1242 17.0606ZM46.0995 17.0593C46.1079 17.0595 46.1157 17.0599 46.1229 17.0605L46.1642 16.5622C46.1455 16.5607 46.1274 16.5598 46.1097 16.5595L46.0995 17.0593ZM46.0839 17.0586L46.0907 17.059L46.1185 16.5598L46.1117 16.5594L46.0839 17.0586ZM46.0883 17.0586C46.0844 17.0586 46.0816 17.0585 46.0805 17.0584C46.0796 17.0584 46.0791 17.0583 46.0811 17.0585L46.1145 16.5596C46.1127 16.5595 46.1012 16.5586 46.0883 16.5586V17.0586ZM31.9438 17.0586H46.0883V16.5586H31.9438V17.0586ZM31.9532 17.0584C31.9551 17.0582 31.9542 17.0583 31.9529 17.0584C31.9514 17.0584 31.9481 17.0586 31.9438 17.0586V16.5586C31.9303 16.5586 31.9185 16.5596 31.9169 16.5597L31.9532 17.0584ZM31.9537 17.0583L31.9537 17.0583L31.9164 16.5597L31.9164 16.5597L31.9537 17.0583ZM31.9436 17.059L31.95 17.0586L31.9201 16.5595L31.9137 16.5598L31.9436 17.059ZM31.9067 17.0607C31.9152 17.06 31.9245 17.0596 31.9351 17.0593L31.9222 16.5595C31.9051 16.5599 31.8869 16.5607 31.8678 16.5622L31.9067 17.0607ZM31.8847 17.063C31.8942 17.0618 31.9008 17.0612 31.9062 17.0607L31.8684 16.5622C31.8525 16.5634 31.8378 16.565 31.8261 16.5664L31.8847 17.063ZM31.8654 17.066C31.8731 17.0646 31.8801 17.0635 31.8865 17.0627L31.8243 16.5666C31.8078 16.5687 31.792 16.5712 31.7768 16.5739L31.8654 17.066ZM31.8395 17.0711C31.8475 17.0694 31.856 17.0677 31.8646 17.0661L31.7776 16.5738C31.762 16.5765 31.7461 16.5797 31.7301 16.5833L31.8395 17.0711ZM31.821 17.076C31.8299 17.0736 31.8363 17.0719 31.8418 17.0706L31.7279 16.5838C31.7143 16.587 31.7015 16.5903 31.6911 16.5931L31.821 17.076ZM31.7985 17.0827C31.804 17.0808 31.811 17.0788 31.8231 17.0754L31.6891 16.5937C31.6754 16.5975 31.6569 16.6027 31.6372 16.6095L31.7985 17.0827ZM31.7843 17.0879C31.7925 17.0848 31.7952 17.0838 31.797 17.0832L31.6387 16.609C31.6256 16.6133 31.6134 16.618 31.6068 16.6205L31.7843 17.0879ZM31.7801 17.0895L31.7842 17.0879L31.6069 16.6204L31.6028 16.622L31.7801 17.0895ZM31.7564 17.0992C31.7631 17.0962 31.7709 17.093 31.7807 17.0893L31.6023 16.6222C31.5873 16.6279 31.5706 16.6346 31.5531 16.6424L31.7564 17.0992ZM31.7404 17.107C31.7486 17.1029 31.7533 17.1006 31.7569 17.099L31.5527 16.6426C31.5379 16.6492 31.5245 16.6559 31.5147 16.6608L31.7404 17.107ZM31.7179 17.1188C31.7238 17.1154 31.7306 17.1119 31.7388 17.1078L31.5163 16.66C31.5025 16.6669 31.4876 16.6746 31.4723 16.6833L31.7179 17.1188ZM31.7002 17.1296C31.7085 17.1244 31.7141 17.1209 31.7187 17.1183L31.4715 16.6837C31.4563 16.6924 31.4426 16.7009 31.4318 16.7078L31.7002 17.1296ZM31.6825 17.1412C31.6861 17.1387 31.6909 17.1355 31.6996 17.13L31.4324 16.7074C31.4227 16.7136 31.409 16.7223 31.3946 16.7324L31.6825 17.1412ZM31.6639 17.1552C31.6704 17.1501 31.6768 17.1452 31.6832 17.1407L31.394 16.7329C31.3801 16.7427 31.3666 16.7529 31.3534 16.7633L31.6639 17.1552ZM31.647 17.1688C31.6508 17.1656 31.6555 17.1618 31.6623 17.1565L31.355 16.762C31.3457 16.7693 31.3347 16.778 31.3231 16.7879L31.647 17.1688ZM31.6295 17.1849C31.637 17.1777 31.643 17.1723 31.6482 17.1678L31.3219 16.7889C31.308 16.8009 31.2954 16.8125 31.2845 16.8229L31.6295 17.1849ZM31.6146 17.1995C31.6192 17.1948 31.6238 17.1903 31.6286 17.1857L31.2854 16.8221C31.2749 16.832 31.2646 16.8422 31.2545 16.8527L31.6146 17.1995ZM31.5996 17.2162C31.6057 17.2092 31.6108 17.2036 31.6153 17.1989L31.2539 16.8533C31.2422 16.8656 31.2315 16.8775 31.2221 16.8884L31.5996 17.2162ZM31.5838 17.2353C31.5891 17.2286 31.5943 17.2223 31.5993 17.2165L31.2223 16.8881C31.2115 16.9005 31.2013 16.9129 31.1916 16.9251L31.5838 17.2353ZM31.573 17.2499C31.5774 17.2437 31.5809 17.2389 31.5841 17.2349L31.1913 16.9255C31.1818 16.9377 31.1732 16.9493 31.1656 16.96L31.573 17.2499ZM31.5568 17.2739C31.5624 17.2651 31.5676 17.2574 31.5724 17.2507L31.1662 16.9592C31.1546 16.9754 31.144 16.9913 31.1344 17.0064L31.5568 17.2739ZM31.5465 17.2895C31.5471 17.2885 31.5534 17.2798 31.5597 17.2693L31.1316 17.011C31.1337 17.0075 31.1354 17.0049 31.1362 17.0037C31.1369 17.0026 31.1375 17.0019 31.1365 17.0032L31.5465 17.2895ZM31.5514 17.2817C31.5493 17.2853 31.5476 17.2879 31.5467 17.2891C31.546 17.2902 31.5455 17.2909 31.5464 17.2896L31.1366 17.0031C31.1359 17.0041 31.1297 17.0128 31.1234 17.0233L31.5514 17.2817ZM28.9289 21.6595L31.5519 17.281L31.1229 17.024L28.5 21.4025L28.9289 21.6595ZM22.278 21.781H28.7144V21.281H22.278V21.781ZM22.028 19.406V21.531H22.528V19.406H22.028ZM21.5708 18.9476C21.823 18.9476 22.028 19.1524 22.028 19.406H22.528C22.528 18.877 22.0999 18.4476 21.5708 18.4476V18.9476ZM15.9129 18.9476H21.5708V18.4476H15.9129V18.9476ZM15.4557 19.406C15.4557 19.1525 15.6608 18.9476 15.9129 18.9476V18.4476C15.3838 18.4476 14.9557 18.8771 14.9557 19.406H15.4557ZM15.4557 21.531V19.406H14.9557V21.531H15.4557ZM14.9698 21.781H15.2057V21.281H14.9698V21.781ZM11.6836 25.0729C11.6836 23.2576 13.1584 21.781 14.9698 21.781V21.281C12.8815 21.281 11.1836 22.9822 11.1836 25.0729H11.6836ZM11.6836 49.6306V25.0729H11.1836V49.6306H11.6836ZM14.9697 52.9225C13.1584 52.9225 11.6836 51.446 11.6836 49.6306H11.1836C11.1836 51.7214 12.8815 53.4225 14.9697 53.4225V52.9225ZM53.6323 52.9225H14.9697V53.4225H53.6323V52.9225ZM56.9184 49.6306C56.9184 51.4459 55.4437 52.9225 53.6323 52.9225V53.4225C55.7206 53.4225 57.4184 51.7213 57.4184 49.6306H56.9184ZM56.9184 25.0729V49.6306H57.4184V25.0729H56.9184ZM53.6324 21.781C55.4437 21.781 56.9185 23.2576 56.9184 25.0729L57.4184 25.0729C57.4185 22.9822 55.7206 21.281 53.6324 21.281V21.781ZM20.8645 19.8652H16.6211V20.3652H20.8645V19.8652ZM21.1145 21.5319V20.1152H20.6145V21.5319H21.1145ZM16.6211 21.7819H20.8645V21.2819H16.6211V21.7819ZM16.3711 20.1152V21.5319H16.8711V20.1152H16.3711ZM53.632 51.5068H22.2776V52.0068H53.632V51.5068ZM55.5036 49.6317C55.5036 50.6658 54.6633 51.5068 53.632 51.5068V52.0068C54.9402 52.0068 56.0036 50.9412 56.0036 49.6317H55.5036ZM55.7535 49.8817H55.7536V49.3817H55.7535V49.8817ZM55.5035 25.0741V49.6317H56.0035V25.0741H55.5035ZM53.6318 23.199C54.6632 23.199 55.5035 24.04 55.5035 25.0741H56.0035C56.0035 23.7646 54.9401 22.699 53.6318 22.699V23.199ZM48.9188 23.199H53.6318V22.699H48.9188V23.199ZM48.933 23.1986L48.9344 23.1985L48.9031 22.6995L48.9017 22.6996L48.933 23.1986ZM48.8979 23.1983L48.9023 23.1986L48.9323 22.6995L48.9279 22.6992L48.8979 23.1983ZM48.806 23.1922C48.8388 23.1959 48.8739 23.1985 48.9112 23.1988L48.9146 22.6988C48.8986 22.6987 48.8817 22.6976 48.8629 22.6954L48.806 23.1922ZM48.7761 23.1878C48.7777 23.188 48.7783 23.1881 48.7839 23.189C48.7882 23.1897 48.7955 23.1909 48.8037 23.1919L48.8652 22.6957C48.8662 22.6958 48.8662 22.6958 48.8633 22.6954C48.8626 22.6952 48.8619 22.6951 48.8609 22.695C48.86 22.6948 48.859 22.6947 48.8578 22.6945C48.8556 22.6941 48.8527 22.6937 48.8494 22.6932L48.7761 23.1878ZM48.6921 23.1716C48.721 23.1786 48.749 23.1837 48.7757 23.1877L48.8498 22.6932C48.8347 22.691 48.8214 22.6884 48.8096 22.6856L48.6921 23.1716ZM48.6776 23.1679C48.6819 23.169 48.6863 23.1701 48.6894 23.1709L48.8123 22.6862C48.8082 22.6852 48.8055 22.6845 48.8027 22.6838L48.6776 23.1679ZM48.6624 23.1638C48.668 23.1654 48.6732 23.1668 48.6776 23.1679L48.8026 22.6838C48.8 22.6831 48.7982 22.6826 48.7967 22.6822L48.6624 23.1638ZM48.5766 23.1357C48.6049 23.1465 48.6337 23.1559 48.6633 23.1641L48.7959 22.682C48.7819 22.6781 48.7682 22.6736 48.7546 22.6685L48.5766 23.1357ZM48.578 23.1363C48.58 23.137 48.5801 23.137 48.58 23.137L48.7512 22.6672C48.7477 22.6659 48.7443 22.6647 48.7429 22.6642L48.578 23.1363ZM48.5578 23.1288C48.5671 23.1325 48.5757 23.1355 48.578 23.1363L48.7428 22.6642C48.742 22.6639 48.7415 22.6637 48.7411 22.6636C48.7407 22.6635 48.7406 22.6634 48.7407 22.6635C48.7408 22.6635 48.7419 22.6639 48.7438 22.6646L48.5578 23.1288ZM48.4547 23.0799C48.4893 23.0991 48.5237 23.1148 48.5563 23.1282L48.7453 22.6653C48.7266 22.6577 48.7108 22.6502 48.6973 22.6427L48.4547 23.0799ZM48.4355 23.0683C48.4368 23.0692 48.4443 23.074 48.4529 23.0788L48.6992 22.6437C48.7016 22.6451 48.7033 22.6461 48.7039 22.6465C48.7043 22.6467 48.7045 22.6469 48.7032 22.646L48.4355 23.0683ZM48.437 23.0693C48.4348 23.0679 48.4332 23.0669 48.4356 23.0684L48.7031 22.646C48.7018 22.6452 48.6965 22.6418 48.6905 22.6383L48.437 23.0693ZM48.3631 23.0217C48.3879 23.0394 48.4131 23.0555 48.4387 23.0703L48.6888 22.6373C48.676 22.6299 48.6643 22.6224 48.6532 22.6145L48.3631 23.0217ZM48.3346 23.0004C48.3409 23.0053 48.3519 23.0138 48.3639 23.0223L48.6523 22.6138C48.65 22.6122 48.6471 22.61 48.6394 22.6041L48.3346 23.0004ZM48.3328 22.999L48.3346 23.0005L48.6393 22.604L48.6374 22.6026L48.3328 22.999ZM48.2731 22.9488C48.2916 22.9657 48.3112 22.9823 48.3319 22.9984L48.6382 22.6032C48.629 22.596 48.6196 22.5881 48.6101 22.5794L48.2731 22.9488ZM48.2466 22.9244C48.2542 22.9319 48.2611 22.9381 48.2652 22.9417C48.2708 22.9467 48.2709 22.9468 48.2725 22.9483L48.6107 22.58C48.6078 22.5773 48.6051 22.5749 48.6032 22.5732C48.6022 22.5723 48.6012 22.5715 48.6005 22.5708C48.5997 22.5701 48.5991 22.5696 48.5986 22.5691C48.5962 22.567 48.5966 22.5673 48.598 22.5686L48.2466 22.9244ZM48.1736 22.8441C48.1968 22.8727 48.2214 22.8995 48.247 22.9248L48.5976 22.5682C48.5846 22.5555 48.5728 22.5425 48.5619 22.529L48.1736 22.8441ZM48.1589 22.8247C48.16 22.8262 48.1662 22.8349 48.1737 22.8442L48.5618 22.5289C48.5639 22.5315 48.5653 22.5334 48.5658 22.534C48.5661 22.5345 48.5663 22.5347 48.5652 22.5332L48.1589 22.8247ZM48.1598 22.8258C48.1582 22.8237 48.1571 22.8222 48.1588 22.8245L48.5653 22.5334C48.5643 22.5319 48.5604 22.5266 48.556 22.5208L48.1598 22.8258ZM48.1045 22.7463C48.1215 22.7735 48.1401 22.8005 48.1605 22.8267L48.5553 22.5199C48.5462 22.5082 48.5373 22.4954 48.5288 22.4817L48.1045 22.7463ZM48.1123 22.7578C48.113 22.7588 48.1118 22.7571 48.1102 22.7549C48.1085 22.7524 48.1055 22.748 48.102 22.7422L48.5313 22.4858C48.5231 22.4722 48.5149 22.4613 48.5148 22.4612L48.1123 22.7578ZM48.0971 22.7354C48.1045 22.7475 48.1118 22.7572 48.1122 22.7576L48.5149 22.4613C48.5142 22.4603 48.5153 22.4618 48.5166 22.4638C48.5182 22.466 48.5208 22.4697 48.5238 22.4747L48.0971 22.7354ZM45.473 18.355L48.096 22.7335L48.5249 22.4766L45.902 18.0981L45.473 18.355ZM32.3438 18.4766H45.6875V17.9766H32.3438V18.4766ZM29.9353 22.7335L32.5582 18.355L32.1293 18.0981L29.5064 22.4766L29.9353 22.7335ZM29.9263 22.7469C29.9236 22.7512 29.9213 22.7545 29.9201 22.7562C29.919 22.7578 29.9181 22.7589 29.9189 22.7579C29.9192 22.7575 29.9212 22.7548 29.9233 22.7518C29.9256 22.7486 29.9289 22.7438 29.9326 22.7379L29.509 22.4722C29.5117 22.4679 29.514 22.4646 29.5153 22.4628C29.5164 22.4613 29.5172 22.4601 29.5165 22.4611C29.5162 22.4615 29.5142 22.4642 29.5121 22.4672C29.5098 22.4704 29.5065 22.4752 29.5028 22.481L29.9263 22.7469ZM29.8717 22.8257C29.8917 22.7997 29.9099 22.7731 29.9264 22.7467L29.5027 22.4813C29.4937 22.4956 29.4846 22.5088 29.4753 22.5209L29.8717 22.8257ZM29.8715 22.826L29.8712 22.8263L29.4757 22.5203C29.4716 22.5257 29.468 22.5307 29.467 22.5321L29.8715 22.826ZM29.8577 22.8441C29.8646 22.8356 29.8703 22.8276 29.8715 22.8259L29.4669 22.5322C29.4658 22.5336 29.4659 22.5336 29.4661 22.5332C29.4665 22.5327 29.4677 22.5312 29.4694 22.529L29.8577 22.8441ZM29.7834 22.9256C29.8098 22.8999 29.8349 22.8725 29.8584 22.8432L29.4687 22.5299C29.4583 22.5429 29.4469 22.5553 29.4346 22.5674L29.7834 22.9256ZM29.7615 22.9458C29.7654 22.9423 29.7742 22.9346 29.7833 22.9256L29.4346 22.5673C29.435 22.5669 29.435 22.567 29.4341 22.5678C29.4331 22.5687 29.4319 22.5698 29.4295 22.5719L29.7615 22.9458ZM29.7573 22.9495C29.7583 22.9486 29.7594 22.9476 29.7615 22.9457L29.4294 22.572C29.4276 22.5736 29.4248 22.5761 29.4219 22.5787L29.7573 22.9495ZM29.6992 22.9984C29.72 22.9823 29.7395 22.9657 29.7581 22.9488L29.4211 22.5794C29.4116 22.5881 29.4022 22.596 29.3929 22.6032L29.6992 22.9984ZM29.6672 23.0223C29.6802 23.0132 29.6922 23.0038 29.6984 22.999L29.3937 22.6026C29.3846 22.6096 29.3817 22.6119 29.3789 22.6138L29.6672 23.0223ZM29.5933 23.0697C29.6175 23.0556 29.6428 23.0397 29.6681 23.0217L29.378 22.6145C29.3674 22.622 29.3554 22.6297 29.3415 22.6378L29.5933 23.0697ZM29.5783 23.0788C29.5826 23.0764 29.5863 23.0742 29.589 23.0726C29.5916 23.071 29.5938 23.0695 29.595 23.0688C29.5958 23.0683 29.5959 23.0682 29.5964 23.0679C29.5967 23.0677 29.5968 23.0677 29.5967 23.0677C29.5967 23.0677 29.5956 23.0684 29.5941 23.0693L29.3407 22.6382C29.3371 22.6404 29.334 22.6423 29.3319 22.6436C29.3301 22.6447 29.328 22.646 29.3276 22.6463C29.3267 22.6469 29.3269 22.6467 29.3275 22.6464C29.3281 22.646 29.3297 22.645 29.332 22.6437L29.5783 23.0788ZM29.4743 23.1284C29.5084 23.1145 29.5422 23.0987 29.5755 23.0804L29.3348 22.6421C29.3199 22.6503 29.3038 22.6579 29.2864 22.665L29.4743 23.1284ZM29.4535 23.1361C29.4526 23.1365 29.4521 23.1366 29.4525 23.1365C29.4536 23.1361 29.4532 23.1362 29.4557 23.1354C29.4587 23.1343 29.4662 23.1317 29.4748 23.1282L29.2858 22.6652C29.2896 22.6637 29.2922 22.6629 29.2903 22.6635C29.2899 22.6637 29.2895 22.6638 29.2887 22.6641C29.288 22.6643 29.2871 22.6646 29.2861 22.665C29.284 22.6657 29.2811 22.6668 29.2777 22.6681L29.4535 23.1361ZM29.3679 23.1641C29.3975 23.1559 29.4263 23.1465 29.4546 23.1357L29.2766 22.6685C29.263 22.6736 29.2493 22.6781 29.2353 22.682L29.3679 23.1641ZM29.3418 23.1709C29.3476 23.1694 29.3582 23.1668 29.3688 23.1638L29.2344 22.6822C29.2309 22.6832 29.2272 22.6841 29.2189 22.6862L29.3418 23.1709ZM29.2555 23.1877C29.2822 23.1837 29.3102 23.1786 29.3391 23.1716L29.2216 22.6856C29.2098 22.6884 29.1965 22.691 29.1814 22.6932L29.2555 23.1877ZM29.2504 23.1885C29.2534 23.188 29.2544 23.1879 29.2552 23.1878L29.1817 22.6932C29.1771 22.6939 29.1727 22.6946 29.1702 22.695L29.2504 23.1885ZM29.2274 23.1919C29.2374 23.1907 29.2466 23.1891 29.2503 23.1885L29.1703 22.695C29.1678 22.6954 29.1667 22.6956 29.1658 22.6957C29.165 22.6958 29.1652 22.6958 29.166 22.6957L29.2274 23.1919ZM29.12 23.1988C29.1573 23.1985 29.1925 23.1959 29.2252 23.1921L29.1682 22.6954C29.1496 22.6976 29.1326 22.6987 29.1166 22.6988L29.12 23.1988ZM29.1285 23.1986L29.133 23.1984L29.1036 22.6992L29.099 22.6995L29.1285 23.1986ZM29.0957 23.1984L29.0971 23.1985L29.1305 22.6996L29.1291 22.6995L29.0957 23.1984ZM14.9693 23.199H29.1124V22.699H14.9693V23.199ZM13.0977 25.0741C13.0977 24.04 13.938 23.199 14.9693 23.199V22.699C13.6611 22.699 12.5977 23.7646 12.5977 25.0741H13.0977ZM13.0977 31.9454V25.0741H12.5977V31.9454H13.0977ZM14.9695 31.6954H12.8477V32.1954H14.9695V31.6954ZM15.9267 32.6538C15.9267 32.1248 15.4986 31.6954 14.9695 31.6954V32.1954C15.2217 32.1954 15.4267 32.4002 15.4267 32.6538H15.9267ZM14.9695 33.6121C15.4986 33.6121 15.9267 33.1826 15.9267 32.6538H15.4267C15.4267 32.9073 15.2217 33.1121 14.9695 33.1121V33.6121ZM12.8477 33.6121H14.9695V33.1121H12.8477V33.6121ZM13.0977 35.6999V33.3621H12.5977V35.6999H13.0977ZM14.9695 35.4499H12.8477V35.9499H14.9695V35.4499ZM15.9267 36.4082C15.9267 35.8793 15.4986 35.4499 14.9695 35.4499V35.9499C15.2217 35.9499 15.4267 36.1546 15.4267 36.4082H15.9267ZM14.9695 37.3665C15.4986 37.3665 15.9267 36.937 15.9267 36.4082H15.4267C15.4267 36.6617 15.2217 36.8665 14.9695 36.8665V37.3665ZM12.8477 37.3665H14.9695V36.8665H12.8477V37.3665ZM13.0977 39.4544V37.1165H12.5977V39.4544H13.0977ZM14.9695 39.2044H12.8477V39.7044H14.9695V39.2044ZM15.9267 40.1628C15.9267 39.6338 15.4986 39.2044 14.9695 39.2044V39.7044C15.2217 39.7044 15.4267 39.9092 15.4267 40.1628H15.9267ZM14.9695 41.1211C15.4986 41.1211 15.9267 40.6916 15.9267 40.1628H15.4267C15.4267 40.4163 15.2217 40.6211 14.9695 40.6211V41.1211ZM12.8477 41.1211H14.9695V40.6211H12.8477V41.1211ZM13.0977 43.2089V40.8711H12.5977V43.2089H13.0977ZM14.9695 42.9589H12.8477V43.4589H14.9695V42.9589ZM15.9267 43.9172C15.9267 43.3883 15.4986 42.9589 14.9695 42.9589V43.4589C15.2217 43.4589 15.4267 43.6636 15.4267 43.9172H15.9267ZM14.9695 44.8755C15.4986 44.8755 15.9267 44.446 15.9267 43.9172H15.4267C15.4267 44.1707 15.2217 44.3755 14.9695 44.3755V44.8755ZM12.8477 44.8755H14.9695V44.3755H12.8477V44.8755ZM13.0977 49.6317V44.6255H12.5977V49.6317H13.0977ZM14.9693 51.5068C13.9379 51.5068 13.0977 50.6658 13.0977 49.6317H12.5977C12.5977 50.9412 13.661 52.0068 14.9693 52.0068V51.5068ZM20.8632 51.5068H14.9693V52.0068H20.8632V51.5068ZM20.6132 25.074V51.7568H21.1132V25.074H20.6132ZM21.5704 24.1157C21.0413 24.1157 20.6132 24.5452 20.6132 25.074H21.1132C21.1132 24.8205 21.3183 24.6157 21.5704 24.6157V24.1157ZM22.5276 25.074C22.5276 24.5451 22.0995 24.1157 21.5704 24.1157V24.6157C21.8226 24.6157 22.0276 24.8204 22.0276 25.074H22.5276ZM22.5276 51.7568V25.074H22.0276V51.7568H22.5276Z" fill="#003863"/>
<path fill-rule="evenodd" clip-rule="evenodd" d="M29.3496 37.8239C29.3496 32.4856 33.6855 28.1426 39.0151 28.1426C44.3447 28.1426 48.6807 32.4855 48.6807 37.8239C48.6807 43.1621 44.3447 47.5052 39.0151 47.5052C33.6856 47.5052 29.3496 43.1621 29.3496 37.8239ZM30.7637 37.8231C30.7637 42.3802 34.465 46.0876 39.0147 46.0876C43.5644 46.0876 47.2658 42.3802 47.2658 37.8231C47.2658 33.266 43.5645 29.5586 39.0147 29.5586C34.4651 29.5586 30.7637 33.266 30.7637 37.8231Z" fill="#003863"/>
<path d="M39.0151 27.8926C33.547 27.8926 29.0996 32.3479 29.0996 37.8239H29.5996C29.5996 32.6233 33.824 28.3926 39.0151 28.3926V27.8926ZM48.9307 37.8239C48.9307 32.3478 44.4831 27.8926 39.0151 27.8926V28.3926C44.2062 28.3926 48.4307 32.6232 48.4307 37.8239H48.9307ZM39.0151 47.7552C44.4831 47.7552 48.9307 43.2998 48.9307 37.8239H48.4307C48.4307 43.0244 44.2062 47.2552 39.0151 47.2552V47.7552ZM29.0996 37.8239C29.0996 43.2998 33.5471 47.7552 39.0151 47.7552V47.2552C33.824 47.2552 29.5996 43.0244 29.5996 37.8239H29.0996ZM39.0147 45.8376C34.6034 45.8376 31.0137 42.2425 31.0137 37.8231H30.5137C30.5137 42.5178 34.3265 46.3376 39.0147 46.3376V45.8376ZM47.0158 37.8231C47.0158 42.2425 43.4259 45.8376 39.0147 45.8376V46.3376C43.7028 46.3376 47.5158 42.5178 47.5158 37.8231H47.0158ZM39.0147 29.8086C43.426 29.8086 47.0158 33.4037 47.0158 37.8231H47.5158C47.5158 33.1283 43.7029 29.3086 39.0147 29.3086V29.8086ZM31.0137 37.8231C31.0137 33.4037 34.6035 29.8086 39.0147 29.8086V29.3086C34.3266 29.3086 30.5137 33.1283 30.5137 37.8231H31.0137Z" fill="#003863"/>
<path fill-rule="evenodd" clip-rule="evenodd" d="M40.773 33.5938C41.6259 33.5938 42.4277 33.9264 43.0307 34.5305C43.6339 35.1345 43.9662 35.9377 43.9662 36.7921C43.9662 37.6464 43.6339 38.4496 43.0306 39.0538L39.5156 42.5746C39.3774 42.713 39.1964 42.7821 39.0154 42.7821C38.8345 42.7821 38.6534 42.713 38.5154 42.5746L34.9999 39.0538C33.7553 37.8068 33.7553 35.7778 34.9997 34.5306C35.603 33.9263 36.4049 33.5938 37.2576 33.5938C37.892 33.5938 38.4981 33.7779 39.0153 34.1207C39.5324 33.7779 40.1386 33.5938 40.773 33.5938ZM39.0159 41.0731L42.0309 38.053C42.3671 37.7164 42.5522 37.269 42.5521 36.7932C42.5521 36.3174 42.367 35.87 42.0309 35.5335C41.6949 35.197 41.2484 35.0117 40.7734 35.0117C40.2983 35.0117 39.8518 35.197 39.5159 35.5334C39.2396 35.8101 38.7919 35.8102 38.5158 35.5336C38.1798 35.1971 37.733 35.0117 37.2579 35.0117C36.783 35.0117 36.3363 35.197 36.0003 35.5335C35.3072 36.2281 35.3071 37.3586 36.0004 38.0531L39.0159 41.0731Z" fill="#003863"/>
<path d="M43.0307 34.5305L42.8538 34.7071L42.8538 34.7072L43.0307 34.5305ZM43.0306 39.0538L42.8537 38.8771L42.8537 38.8771L43.0306 39.0538ZM39.5156 42.5746L39.6924 42.7513L39.6925 42.7513L39.5156 42.5746ZM38.5154 42.5746L38.6924 42.3981L38.6923 42.398L38.5154 42.5746ZM34.9999 39.0538L34.8229 39.2304L34.823 39.2304L34.9999 39.0538ZM34.9997 34.5306L34.8228 34.354L34.8227 34.354L34.9997 34.5306ZM39.0153 34.1207L38.8772 34.3291L39.0154 34.4207L39.1535 34.3291L39.0153 34.1207ZM42.0309 38.053L41.854 37.8764L41.854 37.8764L42.0309 38.053ZM39.0159 41.0731L38.839 41.2497L39.0159 41.4269L39.1928 41.2497L39.0159 41.0731ZM42.5521 36.7932H42.3021V36.7932L42.5521 36.7932ZM42.0309 35.5335L41.854 35.7102L41.854 35.7102L42.0309 35.5335ZM39.5159 35.5334L39.6928 35.7101L39.6928 35.7101L39.5159 35.5334ZM38.5158 35.5336L38.6927 35.357L38.6927 35.357L38.5158 35.5336ZM36.0003 35.5335L35.8234 35.3569L35.8233 35.3569L36.0003 35.5335ZM36.0004 38.0531L35.8234 38.2297L35.8235 38.2298L36.0004 38.0531ZM43.2077 34.3539C42.5578 33.7028 41.6923 33.3438 40.773 33.3438V33.8438C41.5595 33.8438 42.2976 34.15 42.8538 34.7071L43.2077 34.3539ZM44.2162 36.7921C44.2162 35.8715 43.8576 35.0048 43.2076 34.3539L42.8538 34.7072C43.4101 35.2643 43.7162 36.0039 43.7162 36.7921H44.2162ZM43.2075 39.2304C43.8576 38.5794 44.2162 37.7126 44.2162 36.7921H43.7162C43.7162 37.5802 43.4101 38.3199 42.8537 38.8771L43.2075 39.2304ZM39.6925 42.7513L43.2076 39.2304L42.8537 38.8771L39.3386 42.398L39.6925 42.7513ZM39.0154 43.0321C39.2602 43.0321 39.5055 42.9384 39.6924 42.7513L39.3387 42.398C39.2492 42.4875 39.1327 42.5321 39.0154 42.5321V43.0321ZM38.3384 42.7512C38.5252 42.9384 38.7708 43.0321 39.0154 43.0321V42.5321C38.8981 42.5321 38.7816 42.4875 38.6924 42.3981L38.3384 42.7512ZM34.823 39.2304L38.3385 42.7513L38.6923 42.398L35.1768 38.8771L34.823 39.2304ZM34.8227 34.354C33.4809 35.6988 33.4809 37.8858 34.8229 39.2304L35.1768 38.8772C34.0296 37.7278 34.0296 35.8568 35.1767 34.7072L34.8227 34.354ZM37.2576 33.3438C36.3384 33.3438 35.4729 33.7028 34.8228 34.354L35.1766 34.7072C35.7331 34.1499 36.4713 33.8438 37.2576 33.8438V33.3438ZM39.1535 33.9124C38.5951 33.5423 37.9409 33.3438 37.2576 33.3438V33.8438C37.843 33.8438 38.401 34.0135 38.8772 34.3291L39.1535 33.9124ZM40.773 33.3438C40.0897 33.3438 39.4353 33.5423 38.8772 33.9124L39.1535 34.3291C39.6294 34.0135 40.1876 33.8438 40.773 33.8438V33.3438ZM41.854 37.8764L38.8389 40.8964L39.1928 41.2497L42.2078 38.2297L41.854 37.8764ZM42.3021 36.7932C42.3022 37.2028 42.1434 37.5867 41.854 37.8764L42.2078 38.2297C42.5908 37.8462 42.8022 37.3352 42.8021 36.7931L42.3021 36.7932ZM41.854 35.7102C42.1433 35.9998 42.3021 36.3836 42.3021 36.7932H42.8021C42.8021 36.2512 42.5907 35.7402 42.2078 35.3568L41.854 35.7102ZM40.7734 35.2617C41.1819 35.2617 41.5648 35.4206 41.854 35.7102L42.2078 35.3569C41.825 34.9735 41.3148 34.7617 40.7734 34.7617V35.2617ZM39.6928 35.7101C39.9818 35.4206 40.3648 35.2617 40.7734 35.2617V34.7617C40.2319 34.7617 39.7217 34.9735 39.339 35.3568L39.6928 35.7101ZM38.3389 35.7102C38.7127 36.0847 39.3189 36.0844 39.6928 35.7101L39.339 35.3568C39.1603 35.5357 38.8711 35.5356 38.6927 35.357L38.3389 35.7102ZM37.2579 35.2617C37.6666 35.2617 38.0497 35.4207 38.3389 35.7103L38.6927 35.357C38.3098 34.9736 37.7995 34.7617 37.2579 34.7617V35.2617ZM36.1772 35.7102C36.4664 35.4206 36.8494 35.2617 37.2579 35.2617V34.7617C36.7165 34.7617 36.2063 34.9735 35.8234 35.3569L36.1772 35.7102ZM36.1773 37.8765C35.5815 37.2796 35.5816 36.3071 36.1773 35.7101L35.8233 35.3569C35.0329 36.1491 35.0328 37.4376 35.8234 38.2297L36.1773 37.8765ZM39.1928 40.8964L36.1773 37.8765L35.8235 38.2298L38.839 41.2497L39.1928 40.8964Z" fill="#003863"/>
<path d="M45.8025 21.9766L45.0481 20.0878C45.0475 20.0863 45.0467 20.085 45.0461 20.0835C45.0399 20.0682 45.0328 20.0534 45.0255 20.0388C45.0222 20.032 45.0192 20.0251 45.0158 20.0185C45.0094 20.0065 45.0022 19.995 44.9951 19.9834C44.9899 19.9747 44.9849 19.9657 44.9793 19.9572C44.9743 19.9497 44.9688 19.9429 44.9637 19.9358C44.9551 19.924 44.9467 19.912 44.9375 19.9009C44.9355 19.8984 44.9331 19.8961 44.931 19.8935C44.9036 19.8611 44.8738 19.8311 44.8415 19.8044C44.8387 19.8021 44.8357 19.8001 44.8328 19.7979C44.8182 19.7863 44.8034 19.7748 44.788 19.7643C44.7716 19.7532 44.7544 19.743 44.737 19.7332C44.7349 19.732 44.733 19.7306 44.7309 19.7295C44.6938 19.7091 44.6544 19.6923 44.6137 19.6788C44.6111 19.6779 44.6085 19.6768 44.6058 19.676C44.5917 19.6715 44.5771 19.668 44.5627 19.6644C44.5545 19.6624 44.5465 19.6598 44.5383 19.6581C44.528 19.6559 44.5174 19.6547 44.5069 19.6529C44.4939 19.6507 44.481 19.6483 44.4679 19.6469C44.4601 19.6461 44.4524 19.6459 44.4446 19.6453C44.4285 19.6441 44.4124 19.6429 44.3962 19.6428C44.3946 19.6428 44.3931 19.6426 44.3915 19.6426H33.6414C33.64 19.6426 33.6387 19.6428 33.6374 19.6428C33.62 19.6429 33.6027 19.644 33.5855 19.6454C33.5789 19.6459 33.5723 19.6461 33.5657 19.6467C33.5511 19.6482 33.5367 19.6508 33.5224 19.6533C33.5134 19.6549 33.5042 19.656 33.4953 19.6579C33.4854 19.66 33.4755 19.6629 33.4658 19.6655C33.4529 19.6688 33.44 19.6717 33.4275 19.6757C33.4228 19.6771 33.4183 19.6792 33.4136 19.6808C33.3965 19.6866 33.3796 19.6926 33.363 19.6997C33.3621 19.7001 33.3611 19.7006 33.3602 19.701C33.3404 19.7096 33.321 19.7189 33.3023 19.7292C33.2976 19.7317 33.2934 19.7347 33.2889 19.7373C33.2741 19.7459 33.2593 19.7545 33.2451 19.7641C33.2287 19.7751 33.2132 19.7871 33.1978 19.7995C33.1958 19.8012 33.1935 19.8026 33.1915 19.8043C33.1593 19.8308 33.1297 19.8606 33.1023 19.893C33.1 19.8956 33.0975 19.898 33.0954 19.9008C33.0863 19.9119 33.078 19.9237 33.0696 19.9354C33.0642 19.9427 33.0586 19.9496 33.0537 19.9572C33.0481 19.9655 33.0432 19.9744 33.0379 19.9831C33.0309 19.9948 33.0236 20.0064 33.0171 20.0184C33.0137 20.025 33.0108 20.032 33.0075 20.0387C33.0002 20.0533 32.9931 20.0681 32.9868 20.0834C32.9863 20.0849 32.9856 20.0863 32.9849 20.0877L32.2305 21.9765C32.0854 22.3399 32.2617 22.7521 32.6244 22.8975C32.7106 22.932 32.7994 22.9484 32.8869 22.9484C33.1675 22.9484 33.433 22.7799 33.5438 22.5029L34.1204 21.0594H43.9125L44.4891 22.5029C44.5998 22.7799 44.8652 22.9484 45.146 22.9484C45.2334 22.9484 45.3223 22.932 45.4085 22.8975C45.7712 22.7522 45.9475 22.3399 45.8025 21.9766Z" fill="#003863" stroke="#003863" stroke-width="0.5"/>
<path fill-rule="evenodd" clip-rule="evenodd" d="M50.0957 26.489C50.0957 25.3169 51.0477 24.3633 52.218 24.3633C53.3883 24.3633 54.3402 25.3169 54.3403 26.489C54.3403 27.6612 53.3883 28.6148 52.218 28.6148C51.0477 28.6148 50.0957 27.6611 50.0957 26.489ZM51.5098 26.4902C51.5098 26.8811 51.8273 27.1992 52.2176 27.1992C52.6079 27.1992 52.9254 26.8811 52.9254 26.4902C52.9254 26.0993 52.6079 25.7812 52.2176 25.7812C51.8273 25.7812 51.5098 26.0993 51.5098 26.4902Z" fill="#003863"/>
<path d="M54.3403 26.489H54.5903V26.489L54.3403 26.489ZM52.218 24.1133C50.9093 24.1133 49.8457 25.1792 49.8457 26.489H50.3457C50.3457 25.4546 51.1862 24.6133 52.218 24.6133V24.1133ZM54.5903 26.489C54.5902 25.1792 53.5267 24.1133 52.218 24.1133V24.6133C53.2498 24.6133 54.0902 25.4545 54.0903 26.4891L54.5903 26.489ZM52.218 28.8648C53.5267 28.8648 54.5903 27.7989 54.5903 26.489H54.0903C54.0903 27.5235 53.2498 28.3648 52.218 28.3648V28.8648ZM49.8457 26.489C49.8457 27.7988 50.9093 28.8648 52.218 28.8648V28.3648C51.1862 28.3648 50.3457 27.5234 50.3457 26.489H49.8457ZM52.2176 26.9492C51.9658 26.9492 51.7598 26.7434 51.7598 26.4902H51.2598C51.2598 27.0188 51.6889 27.4492 52.2176 27.4492V26.9492ZM52.6754 26.4902C52.6754 26.7434 52.4694 26.9492 52.2176 26.9492V27.4492C52.7463 27.4492 53.1754 27.0188 53.1754 26.4902H52.6754ZM52.2176 26.0312C52.4694 26.0312 52.6754 26.237 52.6754 26.4902H53.1754C53.1754 25.9616 52.7463 25.5312 52.2176 25.5312V26.0312ZM51.7598 26.4902C51.7598 26.237 51.9658 26.0312 52.2176 26.0312V25.5312C51.6889 25.5312 51.2598 25.9616 51.2598 26.4902H51.7598Z" fill="#003863"/>
<path fill-rule="evenodd" clip-rule="evenodd" d="M51.1322 34.7719C49.7686 29.3414 44.853 25.3086 39.014 25.3086C32.1246 25.3086 26.5195 30.9228 26.5195 37.8235C26.5195 44.7241 32.1246 50.3383 39.014 50.3383C44.8529 50.3383 49.7686 46.3055 51.1322 40.8749C52.667 40.709 53.866 39.404 53.866 37.8235C53.866 36.2428 52.6671 34.9377 51.1322 34.7719ZM39.0136 48.9227C32.9041 48.9227 27.9336 43.9441 27.9336 37.8246C27.9336 31.7051 32.9041 26.7266 39.0136 26.7266C44.3388 26.7266 48.7979 30.509 49.8554 35.5323L49.8556 35.538L49.8557 35.539C49.8558 35.5417 49.8558 35.5445 49.8561 35.5472C49.8614 35.5997 49.8729 35.6501 49.8887 35.6983C50.0227 36.3867 50.0936 37.0975 50.0936 37.8246C50.0936 43.9441 45.1231 48.9227 39.0136 48.9227ZM51.508 37.8222C51.508 38.3413 51.4758 38.8529 51.4142 39.3554C52.021 39.111 52.4511 38.5165 52.451 37.8222C52.451 37.128 52.0209 36.5335 51.4141 36.2891C51.4757 36.7916 51.508 37.3032 51.508 37.8222Z" fill="#003863"/>
<path d="M51.1322 34.7719L50.8897 34.8328L50.9321 35.0018L51.1053 35.0205L51.1322 34.7719ZM51.1322 40.8749L51.1053 40.6263L50.9321 40.6451L50.8897 40.814L51.1322 40.8749ZM49.8554 35.5323L50.1051 35.5206L50.1042 35.5005L50.1 35.4808L49.8554 35.5323ZM49.8556 35.538L50.1056 35.5304L50.1054 35.5263L49.8556 35.538ZM49.8557 35.539L49.6058 35.5467L49.6058 35.5467L49.8557 35.539ZM49.8561 35.5472L49.607 35.5693L49.6074 35.5726L49.8561 35.5472ZM49.8887 35.6983L50.1341 35.6506L50.1311 35.6353L50.1262 35.6205L49.8887 35.6983ZM51.4142 39.3554L51.1661 39.325L51.1146 39.7457L51.5077 39.5873L51.4142 39.3554ZM52.451 37.8222H52.201V37.8223L52.451 37.8222ZM51.4141 36.2891L51.5075 36.0572L51.1143 35.8988L51.1659 36.3195L51.4141 36.2891ZM39.014 25.5586C44.7352 25.5586 49.5533 29.5103 50.8897 34.8328L51.3746 34.711C49.984 29.1724 44.9708 25.0586 39.014 25.0586V25.5586ZM26.7695 37.8235C26.7695 31.0605 32.263 25.5586 39.014 25.5586V25.0586C31.9861 25.0586 26.2695 30.7851 26.2695 37.8235H26.7695ZM39.014 50.0883C32.263 50.0883 26.7695 44.5864 26.7695 37.8235H26.2695C26.2695 44.8618 31.9861 50.5883 39.014 50.5883V50.0883ZM50.8897 40.814C49.5533 46.1366 44.7351 50.0883 39.014 50.0883V50.5883C44.9707 50.5883 49.984 46.4745 51.3746 40.9358L50.8897 40.814ZM53.616 37.8235C53.616 39.2751 52.5144 40.474 51.1053 40.6263L51.159 41.1234C52.8195 40.944 54.116 39.5329 54.116 37.8235H53.616ZM51.1053 35.0205C52.5145 35.1727 53.616 36.3716 53.616 37.8235H54.116C54.116 36.1139 52.8196 34.7027 51.159 34.5234L51.1053 35.0205ZM27.6836 37.8246C27.6836 44.0818 32.7656 49.1727 39.0136 49.1727V48.6727C33.0425 48.6727 28.1836 43.8065 28.1836 37.8246H27.6836ZM39.0136 26.4766C32.7656 26.4766 27.6836 31.5674 27.6836 37.8246H28.1836C28.1836 31.8428 33.0425 26.9766 39.0136 26.9766V26.4766ZM50.1 35.4808C49.0188 30.3447 44.4599 26.4766 39.0136 26.4766V26.9766C44.2177 26.9766 48.577 30.6733 49.6107 35.5838L50.1 35.4808ZM50.1054 35.5263L50.1051 35.5206L49.6056 35.544L49.6059 35.5497L50.1054 35.5263ZM50.1056 35.5314L50.1055 35.5304L49.6058 35.5457L49.6058 35.5467L50.1056 35.5314ZM50.1051 35.5251C50.1054 35.5283 50.1055 35.5307 50.1056 35.5317C50.1056 35.5325 50.1056 35.5329 50.1055 35.5313L49.6058 35.5467C49.6058 35.5485 49.6061 35.5583 49.6071 35.5693L50.1051 35.5251ZM50.1262 35.6205C50.1154 35.5873 50.1081 35.5546 50.1048 35.5218L49.6074 35.5726C49.6147 35.6449 49.6304 35.7129 49.6511 35.7762L50.1262 35.6205ZM50.3436 37.8246C50.3436 37.0812 50.2711 36.3544 50.1341 35.6506L49.6433 35.7461C49.7743 36.419 49.8436 37.1138 49.8436 37.8246H50.3436ZM39.0136 49.1727C45.2616 49.1727 50.3436 44.0818 50.3436 37.8246H49.8436C49.8436 43.8065 44.9847 48.6727 39.0136 48.6727V49.1727ZM51.6624 39.3858C51.7251 38.8734 51.758 38.3516 51.758 37.8222H51.258C51.258 38.3309 51.2264 38.8324 51.1661 39.325L51.6624 39.3858ZM52.201 37.8223C52.201 38.4106 51.8366 38.9158 51.3208 39.1235L51.5077 39.5873C52.2054 39.3062 52.7011 38.6223 52.701 37.8222L52.201 37.8223ZM51.3207 36.521C51.8365 36.7287 52.201 37.2339 52.201 37.8222H52.701C52.701 37.0222 52.2053 36.3383 51.5075 36.0572L51.3207 36.521ZM51.758 37.8222C51.758 37.2928 51.725 36.7711 51.6622 36.2586L51.1659 36.3195C51.2263 36.8122 51.258 37.3136 51.258 37.8222H51.758Z" fill="#003863"/>
<path d="M27.2295 26.2539H24.4006C24.0099 26.2539 23.6934 26.5711 23.6934 26.9623C23.6934 27.3535 24.0099 27.6706 24.4006 27.6706H27.2295C27.6201 27.6706 27.9367 27.3534 27.9367 26.9623C27.9367 26.571 27.6201 26.2539 27.2295 26.2539Z" fill="#003863" stroke="#003863" stroke-width="0.5"/>
</svg>
