<svg width="72" height="74" viewBox="0 0 72 74" fill="none" xmlns="http://www.w3.org/2000/svg">
<ellipse cx="39.0733" cy="40.9634" rx="32.9268" ry="33.0357" fill="#E2ECFF"/>
<path fill-rule="evenodd" clip-rule="evenodd" d="M0 35.2381C0 15.8078 15.7557 0 35.122 0C54.4882 0 70.2439 15.8078 70.2439 35.2381C70.2439 54.6684 54.4882 70.4762 35.122 70.4762C15.7557 70.4762 0 54.6684 0 35.2381ZM2.3418 35.2385C2.3418 53.3732 17.0474 68.1274 35.1223 68.1274C53.1972 68.1274 67.9028 53.3732 67.9028 35.2385C67.9028 17.1038 53.1972 2.34961 35.1223 2.34961C17.0474 2.34961 2.3418 17.1038 2.3418 35.2385Z" fill="#003863"/>
<path fill-rule="evenodd" clip-rule="evenodd" d="M24.6992 15.8574H44.6677C46.5028 15.8574 47.9958 17.3553 47.9958 19.1965V53.9231C47.9958 55.7643 46.5028 57.2622 44.6677 57.2622H24.6992C22.8641 57.2622 21.3711 55.7643 21.3711 53.9231V19.1965C21.3711 17.3553 22.8641 15.8574 24.6992 15.8574ZM44.6685 55.9268C45.7694 55.9268 46.6654 55.028 46.6654 53.9234V19.1968C46.6654 18.0922 45.7694 17.1934 44.6685 17.1934H24.7C23.599 17.1934 22.7031 18.0922 22.7031 19.1968V53.9234C22.7031 55.028 23.599 55.9268 24.7 55.9268H44.6685Z" fill="#003863"/>
<path d="M44.6677 15.6074H24.6992V16.1074H44.6677V15.6074ZM48.2458 19.1965C48.2458 17.218 46.6417 15.6074 44.6677 15.6074V16.1074C46.364 16.1074 47.7458 17.4926 47.7458 19.1965H48.2458ZM48.2458 53.9231V19.1965H47.7458V53.9231H48.2458ZM44.6677 57.5122C46.6417 57.5122 48.2458 55.9016 48.2458 53.9231H47.7458C47.7458 55.627 46.364 57.0122 44.6677 57.0122V57.5122ZM24.6992 57.5122H44.6677V57.0122H24.6992V57.5122ZM21.1211 53.9231C21.1211 55.9016 22.7252 57.5122 24.6992 57.5122V57.0122C23.0029 57.0122 21.6211 55.627 21.6211 53.9231H21.1211ZM21.1211 19.1965V53.9231H21.6211V19.1965H21.1211ZM24.6992 15.6074C22.7252 15.6074 21.1211 17.218 21.1211 19.1965H21.6211C21.6211 17.4926 23.0029 16.1074 24.6992 16.1074V15.6074ZM46.4154 53.9234C46.4154 54.8907 45.6306 55.6768 44.6685 55.6768V56.1768C45.9083 56.1768 46.9154 55.1653 46.9154 53.9234H46.4154ZM46.4154 19.1968V53.9234H46.9154V19.1968H46.4154ZM44.6685 17.4434C45.6306 17.4434 46.4154 18.2295 46.4154 19.1968H46.9154C46.9154 17.955 45.9083 16.9434 44.6685 16.9434V17.4434ZM24.7 17.4434H44.6685V16.9434H24.7V17.4434ZM22.9531 19.1968C22.9531 18.2295 23.7379 17.4434 24.7 17.4434V16.9434C23.4602 16.9434 22.4531 17.955 22.4531 19.1968H22.9531ZM22.9531 53.9234V19.1968H22.4531V53.9234H22.9531ZM24.7 55.6768C23.7379 55.6768 22.9531 54.8907 22.9531 53.9234H22.4531C22.4531 55.1653 23.4602 56.1768 24.7 56.1768V55.6768ZM44.6685 55.6768H24.7V56.1768H44.6685V55.6768Z" fill="#003863"/>
<path fill-rule="evenodd" clip-rule="evenodd" d="M24.0332 43.9058C24.0332 38.0143 28.811 33.2207 34.6831 33.2207C40.5552 33.2207 45.333 38.0143 45.333 43.9058C45.333 49.7973 40.5552 54.5909 34.6831 54.5909C28.811 54.5909 24.0332 49.7973 24.0332 43.9058ZM25.3633 43.9061C25.3633 49.0617 29.5434 53.2556 34.6819 53.2556C39.8205 53.2556 44.0006 49.0617 44.0006 43.9061C44.0006 38.7505 39.8205 34.5566 34.6819 34.5566C29.5434 34.5566 25.3633 38.7505 25.3633 43.9061Z" fill="#003863"/>
<path d="M34.6831 32.9707C28.6722 32.9707 23.7832 37.877 23.7832 43.9058H24.2832C24.2832 38.1516 28.9499 33.4707 34.6831 33.4707V32.9707ZM45.583 43.9058C45.583 37.877 40.694 32.9707 34.6831 32.9707V33.4707C40.4163 33.4707 45.083 38.1516 45.083 43.9058H45.583ZM34.6831 54.8409C40.694 54.8409 45.583 49.9346 45.583 43.9058H45.083C45.083 49.66 40.4163 54.3409 34.6831 54.3409V54.8409ZM23.7832 43.9058C23.7832 49.9346 28.6722 54.8409 34.6831 54.8409V54.3409C28.9499 54.3409 24.2832 49.66 24.2832 43.9058H23.7832ZM34.6819 53.0056C29.6822 53.0056 25.6133 48.9244 25.6133 43.9061H25.1133C25.1133 49.199 29.4045 53.5056 34.6819 53.5056V53.0056ZM43.7506 43.9061C43.7506 48.9244 39.6816 53.0056 34.6819 53.0056V53.5056C39.9593 53.5056 44.2506 49.199 44.2506 43.9061H43.7506ZM34.6819 34.8066C39.6816 34.8066 43.7506 38.8878 43.7506 43.9061H44.2506C44.2506 38.6133 39.9593 34.3066 34.6819 34.3066V34.8066ZM25.6133 43.9061C25.6133 38.8878 29.6822 34.8066 34.6819 34.8066V34.3066C29.4045 34.3066 25.1133 38.6133 25.1133 43.9061H25.6133Z" fill="#003863"/>
<path fill-rule="evenodd" clip-rule="evenodd" d="M26.6953 43.9044C26.6953 39.4855 30.2783 35.8906 34.6827 35.8906C39.0871 35.8906 42.6701 39.4855 42.6701 43.9044C42.6701 48.3234 39.0871 51.9183 34.6827 51.9183C30.2783 51.9183 26.6953 48.3234 26.6953 43.9044ZM28.0273 43.9047C28.0273 47.5871 31.0133 50.5829 34.6835 50.5829C38.3537 50.5829 41.3397 47.5871 41.3397 43.9047C41.3397 40.2224 38.3537 37.2266 34.6835 37.2266C31.0133 37.2266 28.0273 40.2224 28.0273 43.9047Z" fill="#003863"/>
<path d="M34.6827 35.6406C30.1395 35.6406 26.4453 39.3482 26.4453 43.9044H26.9453C26.9453 39.6228 30.4172 36.1406 34.6827 36.1406V35.6406ZM42.9201 43.9044C42.9201 39.3482 39.226 35.6406 34.6827 35.6406V36.1406C38.9483 36.1406 42.4201 39.6228 42.4201 43.9044H42.9201ZM34.6827 52.1683C39.226 52.1683 42.9201 48.4607 42.9201 43.9044H42.4201C42.4201 48.1861 38.9483 51.6683 34.6827 51.6683V52.1683ZM26.4453 43.9044C26.4453 48.4607 30.1395 52.1683 34.6827 52.1683V51.6683C30.4172 51.6683 26.9453 48.1861 26.9453 43.9044H26.4453ZM34.6835 50.3329C31.1522 50.3329 28.2773 47.4498 28.2773 43.9047H27.7773C27.7773 47.7244 30.8745 50.8329 34.6835 50.8329V50.3329ZM41.0897 43.9047C41.0897 47.4498 38.2149 50.3329 34.6835 50.3329V50.8329C38.4926 50.8329 41.5897 47.7244 41.5897 43.9047H41.0897ZM34.6835 37.4766C38.2149 37.4766 41.0897 40.3597 41.0897 43.9047H41.5897C41.5897 40.0851 38.4926 36.9766 34.6835 36.9766V37.4766ZM28.2773 43.9047C28.2773 40.3597 31.1522 37.4766 34.6835 37.4766V36.9766C30.8745 36.9766 27.7773 40.0851 27.7773 43.9047H28.2773Z" fill="#003863"/>
<path fill-rule="evenodd" clip-rule="evenodd" d="M32.0195 43.9056C32.0195 42.4324 33.2136 41.2344 34.682 41.2344C36.1504 41.2344 37.3445 42.4324 37.3445 43.9056C37.3445 45.3789 36.1504 46.5769 34.682 46.5769C33.2136 46.5769 32.0195 45.3789 32.0195 43.9056ZM33.3516 43.906C33.3516 44.6426 33.9486 45.2416 34.6828 45.2416C35.417 45.2416 36.014 44.6426 36.014 43.906C36.014 43.1693 35.417 42.5703 34.6828 42.5703C33.9486 42.5703 33.3516 43.1693 33.3516 43.906Z" fill="#003863"/>
<path d="M34.682 40.9844C33.0748 40.9844 31.7695 42.2951 31.7695 43.9056H32.2695C32.2695 42.5697 33.3525 41.4844 34.682 41.4844V40.9844ZM37.5945 43.9056C37.5945 42.2951 36.2892 40.9844 34.682 40.9844V41.4844C36.0115 41.4844 37.0945 42.5697 37.0945 43.9056H37.5945ZM34.682 46.8269C36.2892 46.8269 37.5945 45.5161 37.5945 43.9056H37.0945C37.0945 45.2416 36.0115 46.3269 34.682 46.3269V46.8269ZM31.7695 43.9056C31.7695 45.5161 33.0748 46.8269 34.682 46.8269V46.3269C33.3525 46.3269 32.2695 45.2416 32.2695 43.9056H31.7695ZM34.6828 44.9916C34.0875 44.9916 33.6016 44.5053 33.6016 43.906H33.1016C33.1016 44.7798 33.8098 45.4916 34.6828 45.4916V44.9916ZM35.764 43.906C35.764 44.5053 35.2781 44.9916 34.6828 44.9916V45.4916C35.5558 45.4916 36.264 44.7798 36.264 43.906H35.764ZM34.6828 42.8203C35.2781 42.8203 35.764 43.3066 35.764 43.906H36.264C36.264 43.0321 35.5558 42.3203 34.6828 42.3203V42.8203ZM33.6016 43.906C33.6016 43.3066 34.0875 42.8203 34.6828 42.8203V42.3203C33.8098 42.3203 33.1016 43.0321 33.1016 43.906H33.6016Z" fill="#003863"/>
<path fill-rule="evenodd" clip-rule="evenodd" d="M41.3397 25.2055C41.3397 28.8879 38.3537 31.8837 34.6835 31.8837C31.0133 31.8837 28.0273 28.8879 28.0273 25.2055C28.0273 21.5232 31.0133 18.5273 34.6835 18.5273C38.3537 18.5273 41.3397 21.5232 41.3397 25.2055ZM40.0093 25.2058C40.0093 22.2601 37.6204 19.8633 34.6843 19.8633C31.7483 19.8633 29.3594 22.2601 29.3594 25.2058C29.3594 28.1516 31.7483 30.5484 34.6843 30.5484C37.6204 30.5484 40.0093 28.1516 40.0093 25.2058Z" fill="#003863"/>
<path d="M34.6835 32.1337C38.4926 32.1337 41.5897 29.0252 41.5897 25.2055H41.0897C41.0897 28.7506 38.2149 31.6337 34.6835 31.6337V32.1337ZM27.7773 25.2055C27.7773 29.0252 30.8745 32.1337 34.6835 32.1337V31.6337C31.1522 31.6337 28.2773 28.7506 28.2773 25.2055H27.7773ZM34.6835 18.2773C30.8745 18.2773 27.7773 21.3859 27.7773 25.2055H28.2773C28.2773 21.6605 31.1522 18.7773 34.6835 18.7773V18.2773ZM41.5897 25.2055C41.5897 21.3859 38.4926 18.2773 34.6835 18.2773V18.7773C38.2149 18.7773 41.0897 21.6605 41.0897 25.2055H41.5897ZM34.6843 20.1133C37.4815 20.1133 39.7593 22.3974 39.7593 25.2058H40.2593C40.2593 22.1228 37.7592 19.6133 34.6843 19.6133V20.1133ZM29.6094 25.2058C29.6094 22.3974 31.8871 20.1133 34.6843 20.1133V19.6133C31.6094 19.6133 29.1094 22.1228 29.1094 25.2058H29.6094ZM34.6843 30.2984C31.8871 30.2984 29.6094 28.0143 29.6094 25.2058H29.1094C29.1094 28.2889 31.6094 30.7984 34.6843 30.7984V30.2984ZM39.7593 25.2058C39.7593 28.0143 37.4815 30.2984 34.6843 30.2984V30.7984C37.7592 30.7984 40.2593 28.2889 40.2593 25.2058H39.7593Z" fill="#003863"/>
<path d="M34.6832 22.5349V21.1992C32.4806 21.1992 30.6895 22.9963 30.6895 25.2061H32.0207C32.0207 23.7329 33.2148 22.5349 34.6832 22.5349Z" fill="#003863" stroke="#003863" stroke-width="0.5"/>
<path d="M34.6836 29.2139C36.8861 29.2139 38.6773 27.4168 38.6773 25.207H37.3461C37.3461 26.6802 36.1519 27.8783 34.6836 27.8783V29.2139Z" fill="#003863" stroke="#003863" stroke-width="0.5"/>
<path fill-rule="evenodd" clip-rule="evenodd" d="M16.7113 33.3449V31.2186C16.7113 30.8493 17.0088 30.5508 17.3769 30.5508H19.3738V31.8864H18.0425V35.2255C18.0425 36.3301 17.1466 37.229 16.0457 37.229C14.9447 37.229 14.0488 36.3301 14.0488 35.2255C14.0488 34.1209 14.9447 33.2221 16.0457 33.2221C16.28 33.2221 16.5023 33.2701 16.7113 33.3449ZM15.3789 35.2264C15.3789 35.595 15.6771 35.8942 16.0445 35.8942C16.4119 35.8942 16.7101 35.595 16.7101 35.2264C16.7101 34.8578 16.4119 34.5586 16.0445 34.5586C15.6771 34.5586 15.3789 34.8578 15.3789 35.2264Z" fill="#003863"/>
<path fill-rule="evenodd" clip-rule="evenodd" d="M52.6547 16.5252C52.6547 16.1559 52.9522 15.8574 53.3203 15.8574H55.3171V17.1931H53.9859V20.5322C53.9859 21.6367 53.09 22.5356 51.989 22.5356C50.8881 22.5356 49.9922 21.6367 49.9922 20.5322C49.9922 19.4276 50.8881 18.5287 51.989 18.5287C52.2233 18.5287 52.4457 18.5768 52.6547 18.6516V16.5252ZM51.3242 20.5331C51.3242 20.9017 51.6224 21.2009 51.9898 21.2009C52.3573 21.2009 52.6555 20.9017 52.6555 20.5331C52.6555 20.1644 52.3573 19.8652 51.9898 19.8652C51.6224 19.8652 51.3242 20.1644 51.3242 20.5331Z" fill="#003863"/>
</svg>
